<svg xmlns="http://www.w3.org/2000/svg" xmlns:xlink="http://www.w3.org/1999/xlink" width="1855" height="982" style="border: 1px solid black; overflow: hidden;"><defs/><g id="container"><g id="container_1" transform="matrix(0.7104,0.0000,0.0000,0.7104,50.0000,50.00)"><g id="container_2"/><g id="container_3"/><g id="container_4"><g id="I11"><path d="M 705.8823529411765 1043.4375L 588.2352941176471 1043.4375M 705.8823529411765 1108.1250000000002L 705.8823529411765 978.75" style="fill:none;stroke:#000000;stroke-linecap:round;stroke-miterlimit:10;" id="shape"/></g><g id="I12"><path d="M 823.529411764706 978.75L 705.8823529411765 978.75M 823.529411764706 1012.5L 823.529411764706 944.9999999999999" style="fill:none;stroke:#000000;stroke-linecap:round;stroke-miterlimit:10;" id="shape_1"/></g><g id="I51"><path d="M 1005 150L 1000 150" style="fill:none;stroke:#aaaaaa;stroke-width:0.3;stroke-linecap:round;stroke-miterlimit:10;stroke-dasharray:5,10;" id="shape_2"/><text id="text" transform="matrix(1.0000,0.0000,0.0000,1.0000,1005.0000,156.73)" fill="#000000" style="font-size:20px;font-family:Arial;">AB558120</text><path d="M 1000 150L 529.4117647058823 150" style="fill:none;stroke:#000000;stroke-linecap:round;stroke-miterlimit:10;" id="shape_3"/></g><g id="I22"><path d="M 823.529411764706 1136.2500000000005L 764.7058823529411 1136.2500000000005M 823.529411764706 1162.5000000000005L 823.529411764706 1110.0000000000002" style="fill:none;stroke:#000000;stroke-linecap:round;stroke-miterlimit:10;" id="shape_4"/></g><g id="I79"><path d="M 1005 809.9999999999998L 1000 809.9999999999998" style="fill:none;stroke:#aaaaaa;stroke-width:0.3;stroke-linecap:round;stroke-miterlimit:10;stroke-dasharray:5,10;" id="shape_5"/><text id="text_1" transform="matrix(1.0000,0.0000,0.0000,1.0000,1005.0000,816.73)" fill="#000000" style="font-size:20px;font-family:Arial;">gi 615814998 gb AHX72146.1  RNA-dependent RNA polymerase Sclerotinia sclerotiorum mitovirus 1 HC025</text><path d="M 1000 809.9999999999998L 823.529411764706 809.9999999999998" style="fill:none;stroke:#000000;stroke-linecap:round;stroke-miterlimit:10;" id="shape_6"/></g><g id="I73"><path d="M 882.3529411764706 682.4999999999998L 647.0588235294118 682.4999999999998M 882.3529411764706 704.9999999999999L 882.3529411764706 659.9999999999998" style="fill:none;stroke:#000000;stroke-linecap:round;stroke-miterlimit:10;" id="shape_7"/></g><g id="I5"><path d="M 1005 899.9999999999997L 1000 899.9999999999997" style="fill:none;stroke:#aaaaaa;stroke-width:0.3;stroke-linecap:round;stroke-miterlimit:10;stroke-dasharray:5,10;" id="shape_8"/><text id="text_2" transform="matrix(1.0000,0.0000,0.0000,1.0000,1005.0000,906.73)" fill="#000000" style="font-size:20px;font-family:Arial;">gi 618765924 gb AHX84132.1  RNA-dependent RNA polymerase Sclerotinia sclerotiorum mitovirus 5</text><path d="M 1000 899.9999999999997L 941.1764705882352 899.9999999999997" style="fill:none;stroke:#000000;stroke-linecap:round;stroke-miterlimit:10;" id="shape_9"/></g><g id="I47"><path d="M 941.1764705882352 105L 294.11764705882354 105M 941.1764705882352 120L 941.1764705882352 90" style="fill:none;stroke:#000000;stroke-linecap:round;stroke-miterlimit:10;" id="shape_10"/></g><g id="I46"><path d="M 1005 60L 1000 60" style="fill:none;stroke:#aaaaaa;stroke-width:0.3;stroke-linecap:round;stroke-miterlimit:10;stroke-dasharray:5,10;" id="shape_11"/><text id="text_3" transform="matrix(1.0000,0.0000,0.0000,1.0000,1005.0000,66.73)" fill="#000000" style="font-size:20px;font-family:Arial;">RdMV2</text><path d="M 1000 60L 235.2941176470588 60" style="fill:none;stroke:#000000;stroke-linecap:round;stroke-miterlimit:10;" id="shape_12"/></g><g id="I43"><path d="M 176.47058823529412 92.7630615234375L 117.6470588235294 92.7630615234375M 176.47058823529412 155.526123046875L 176.47058823529412 30" style="fill:none;stroke:#000000;stroke-linecap:round;stroke-miterlimit:10;" id="shape_13"/></g><g id="I6"><path d="M 764.7058823529411 808.1249999999998L 705.8823529411765 808.1249999999998M 764.7058823529411 836.2499999999998L 764.7058823529411 779.9999999999998" style="fill:none;stroke:#000000;stroke-linecap:round;stroke-miterlimit:10;" id="shape_14"/></g><g id="I50"><path d="M 529.4117647058823 188.32031250000003L 352.94117647058823 188.32031250000003M 529.4117647058823 226.64062500000003L 529.4117647058823 150" style="fill:none;stroke:#000000;stroke-linecap:round;stroke-miterlimit:10;" id="shape_15"/></g><g id="I20"><path d="M 1005 959.9999999999999L 1000 959.9999999999999" style="fill:none;stroke:#aaaaaa;stroke-width:0.3;stroke-linecap:round;stroke-miterlimit:10;stroke-dasharray:5,10;" id="shape_16"/><text id="text_4" transform="matrix(1.0000,0.0000,0.0000,1.0000,1005.0000,966.73)" fill="#000000" style="font-size:20px;font-family:Arial;">gi 568599569 gb AHE13865.1  Pol partial Sclerotinia sclerotiorum mitovirus 9</text><path d="M 1000 959.9999999999999L 941.1764705882352 959.9999999999999" style="fill:none;stroke:#000000;stroke-linecap:round;stroke-miterlimit:10;" id="shape_17"/></g><g id="I26"><path d="M 941.1764705882352 1185.0000000000005L 882.3529411764706 1185.0000000000005M 941.1764705882352 1200.0000000000005L 941.1764705882352 1170.0000000000005" style="fill:none;stroke:#000000;stroke-linecap:round;stroke-miterlimit:10;" id="shape_18"/></g><g id="I69"><path d="M 941.1764705882352 314.99999999999994L 882.3529411764706 314.99999999999994M 941.1764705882352 329.99999999999994L 941.1764705882352 300" style="fill:none;stroke:#000000;stroke-linecap:round;stroke-miterlimit:10;" id="shape_19"/></g><g id="I33"><path d="M 1005 599.9999999999999L 1000 599.9999999999999" style="fill:none;stroke:#aaaaaa;stroke-width:0.3;stroke-linecap:round;stroke-miterlimit:10;stroke-dasharray:5,10;" id="shape_20"/><text id="text_5" transform="matrix(1.0000,0.0000,0.0000,1.0000,1005.0000,606.73)" fill="#000000" style="font-size:20px;font-family:Arial;">MG256173</text><path d="M 1000 599.9999999999999L 470.5882352941176 599.9999999999999" style="fill:none;stroke:#000000;stroke-linecap:round;stroke-miterlimit:10;" id="shape_21"/></g><g id="I44"><path d="M 1005 0L 1000 0" style="fill:none;stroke:#aaaaaa;stroke-width:0.3;stroke-linecap:round;stroke-miterlimit:10;stroke-dasharray:5,10;" id="shape_22"/><text id="text_6" transform="matrix(1.0000,0.0000,0.0000,1.0000,1005.0000,6.73)" fill="#000000" style="font-size:20px;font-family:Arial;">NP 660178.1 RNA-dependent RNA polymerase Saccharomyces 20S RNA narnavirus</text><path d="M 1000 0L 117.6470588235294 0" style="fill:none;stroke:#000000;stroke-linecap:round;stroke-miterlimit:10;" id="shape_23"/></g><g id="I56"><path d="M 764.7058823529411 388.125L 705.8823529411765 388.125M 764.7058823529411 416.24999999999994L 764.7058823529411 359.99999999999994" style="fill:none;stroke:#000000;stroke-linecap:round;stroke-miterlimit:10;" id="shape_24"/></g><g id="I76"><path d="M 1005 719.9999999999998L 1000 719.9999999999998" style="fill:none;stroke:#aaaaaa;stroke-width:0.3;stroke-linecap:round;stroke-miterlimit:10;stroke-dasharray:5,10;" id="shape_25"/><text id="text_7" transform="matrix(1.0000,0.0000,0.0000,1.0000,1005.0000,726.73)" fill="#000000" style="font-size:20px;font-family:Arial;">SsMitoLV1</text><path d="M 1000 719.9999999999998L 941.1764705882352 719.9999999999998" style="fill:none;stroke:#000000;stroke-linecap:round;stroke-miterlimit:10;" id="shape_26"/></g><g id="I28"><path d="M 1005 1200.0000000000005L 1000 1200.0000000000005" style="fill:none;stroke:#aaaaaa;stroke-width:0.3;stroke-linecap:round;stroke-miterlimit:10;stroke-dasharray:5,10;" id="shape_27"/><text id="text_8" transform="matrix(1.0000,0.0000,0.0000,1.0000,1005.0000,1206.73)" fill="#000000" style="font-size:20px;font-family:Arial;">gi 618765930 gb AHX84135.1  RNA-dependent RNA polymerase Sclerotinia sclerotiorum mitovirus 7</text><path d="M 1000 1200.0000000000005L 941.1764705882352 1200.0000000000005" style="fill:none;stroke:#000000;stroke-linecap:round;stroke-miterlimit:10;" id="shape_28"/></g><g id="I68"><path d="M 1005 270L 1000 270" style="fill:none;stroke:#aaaaaa;stroke-width:0.3;stroke-linecap:round;stroke-miterlimit:10;stroke-dasharray:5,10;" id="shape_29"/><text id="text_9" transform="matrix(1.0000,0.0000,0.0000,1.0000,1005.0000,276.73)" fill="#000000" style="font-size:20px;font-family:Arial;">gi 568599573 gb AHE13867.1  Pol partial Sclerotinia sclerotiorum mitovirus 8</text><path d="M 1000 270L 941.1764705882352 270" style="fill:none;stroke:#000000;stroke-linecap:round;stroke-miterlimit:10;" id="shape_30"/></g><g id="I54"><path d="M 647.0588235294118 273.28125L 588.2352941176471 273.28125M 647.0588235294118 336.5625L 647.0588235294118 210.00000000000003" style="fill:none;stroke:#000000;stroke-linecap:round;stroke-miterlimit:10;" id="shape_31"/></g><g id="I4"><path d="M 1005 869.9999999999997L 1000 869.9999999999997" style="fill:none;stroke:#aaaaaa;stroke-width:0.3;stroke-linecap:round;stroke-miterlimit:10;stroke-dasharray:5,10;" id="shape_32"/><text id="text_10" transform="matrix(1.0000,0.0000,0.0000,1.0000,1005.0000,876.73)" fill="#000000" style="font-size:20px;font-family:Arial;">gi 618765920 gb AHX84130.1  RNA-dependent RNA polymerase Sclerotinia sclerotiorum mitovirus 5</text><path d="M 1000 869.9999999999997L 941.1764705882352 869.9999999999997" style="fill:none;stroke:#000000;stroke-linecap:round;stroke-miterlimit:10;" id="shape_33"/></g><g id="I72"><path d="M 1005 210.00000000000003L 1000 210.00000000000003" style="fill:none;stroke:#aaaaaa;stroke-width:0.3;stroke-linecap:round;stroke-miterlimit:10;stroke-dasharray:5,10;" id="shape_34"/><text id="text_11" transform="matrix(1.0000,0.0000,0.0000,1.0000,1005.0000,216.73)" fill="#000000" style="font-size:20px;font-family:Arial;">gi 440808115 gb AGC24232.1  RNA-dependent RNA polymerase Sclerotinia sclerotiorum mitovirus 3</text><path d="M 1000 210.00000000000003L 647.0588235294118 210.00000000000003" style="fill:none;stroke:#000000;stroke-linecap:round;stroke-miterlimit:10;" id="shape_35"/></g><g id="I27"><path d="M 1005 1170.0000000000005L 1000 1170.0000000000005" style="fill:none;stroke:#aaaaaa;stroke-width:0.3;stroke-linecap:round;stroke-miterlimit:10;stroke-dasharray:5,10;" id="shape_36"/><text id="text_12" transform="matrix(1.0000,0.0000,0.0000,1.0000,1005.0000,1176.73)" fill="#000000" style="font-size:20px;font-family:Arial;">gi 571798713 gb AHF48626.1  RNA-dependent RNA polymerase partial Sclerotinia sclerotiorum mitovirus 10</text><path d="M 1000 1170.0000000000005L 941.1764705882352 1170.0000000000005" style="fill:none;stroke:#000000;stroke-linecap:round;stroke-miterlimit:10;" id="shape_37"/></g><g id="I67"><path d="M 1005 240L 1000 240" style="fill:none;stroke:#aaaaaa;stroke-width:0.3;stroke-linecap:round;stroke-miterlimit:10;stroke-dasharray:5,10;" id="shape_38"/><text id="text_13" transform="matrix(1.0000,0.0000,0.0000,1.0000,1005.0000,246.73)" fill="#000000" style="font-size:20px;font-family:Arial;">SsMitoLV4</text><path d="M 1000 240L 941.1764705882352 240" style="fill:none;stroke:#000000;stroke-linecap:round;stroke-miterlimit:10;" id="shape_39"/></g><g id="I74"><path d="M 941.1764705882352 704.9999999999999L 882.3529411764706 704.9999999999999M 941.1764705882352 719.9999999999998L 941.1764705882352 689.9999999999998" style="fill:none;stroke:#000000;stroke-linecap:round;stroke-miterlimit:10;" id="shape_40"/></g><g id="I15"><path d="M 941.1764705882352 1035L 882.3529411764706 1035M 941.1764705882352 1050L 941.1764705882352 1020" style="fill:none;stroke:#000000;stroke-linecap:round;stroke-miterlimit:10;" id="shape_41"/></g><g id="I62"><path d="M 1005 479.99999999999994L 1000 479.99999999999994" style="fill:none;stroke:#aaaaaa;stroke-width:0.3;stroke-linecap:round;stroke-miterlimit:10;stroke-dasharray:5,10;" id="shape_42"/><text id="text_14" transform="matrix(1.0000,0.0000,0.0000,1.0000,1005.0000,486.73)" fill="#000000" style="font-size:20px;font-family:Arial;">gi 568599571 gb AHE13866.1  Pol partial Sclerotinia sclerotiorum mitovirus 7</text><path d="M 1000 479.99999999999994L 941.1764705882352 479.99999999999994" style="fill:none;stroke:#000000;stroke-linecap:round;stroke-miterlimit:10;" id="shape_43"/></g><g id="I61"><path d="M 1005 449.99999999999994L 1000 449.99999999999994" style="fill:none;stroke:#aaaaaa;stroke-width:0.3;stroke-linecap:round;stroke-miterlimit:10;stroke-dasharray:5,10;" id="shape_44"/><text id="text_15" transform="matrix(1.0000,0.0000,0.0000,1.0000,1005.0000,456.73)" fill="#000000" style="font-size:20px;font-family:Arial;">SsMitoLV2</text><path d="M 1000 449.99999999999994L 941.1764705882352 449.99999999999994" style="fill:none;stroke:#000000;stroke-linecap:round;stroke-miterlimit:10;" id="shape_45"/></g><g id="I70"><path d="M 1005 300L 1000 300" style="fill:none;stroke:#aaaaaa;stroke-width:0.3;stroke-linecap:round;stroke-miterlimit:10;stroke-dasharray:5,10;" id="shape_46"/><text id="text_16" transform="matrix(1.0000,0.0000,0.0000,1.0000,1005.0000,306.73)" fill="#000000" style="font-size:20px;font-family:Arial;">gi 618765926 gb AHX84133.1  RNA-dependent RNA polymerase Sclerotinia sclerotiorum mitovirus 6</text><path d="M 1000 300L 941.1764705882352 300" style="fill:none;stroke:#000000;stroke-linecap:round;stroke-miterlimit:10;" id="shape_47"/></g><g id="I21"><path d="M 764.7058823529411 1108.1250000000002L 705.8823529411765 1108.1250000000002M 764.7058823529411 1136.2500000000005L 764.7058823529411 1080.0000000000002" style="fill:none;stroke:#000000;stroke-linecap:round;stroke-miterlimit:10;" id="shape_48"/></g><g id="I25"><path d="M 1005 1140.0000000000002L 1000 1140.0000000000002" style="fill:none;stroke:#aaaaaa;stroke-width:0.3;stroke-linecap:round;stroke-miterlimit:10;stroke-dasharray:5,10;" id="shape_49"/><text id="text_17" transform="matrix(1.0000,0.0000,0.0000,1.0000,1005.0000,1146.73)" fill="#000000" style="font-size:20px;font-family:Arial;">gi 571798725 gb AHF48632.1  RNA-dependent RNA polymerase partial Sclerotinia sclerotiorum mitovirus 16</text><path d="M 1000 1140.0000000000002L 882.3529411764706 1140.0000000000002" style="fill:none;stroke:#000000;stroke-linecap:round;stroke-miterlimit:10;" id="shape_50"/></g><g id="I23"><path d="M 1005 1110.0000000000002L 1000 1110.0000000000002" style="fill:none;stroke:#aaaaaa;stroke-width:0.3;stroke-linecap:round;stroke-miterlimit:10;stroke-dasharray:5,10;" id="shape_51"/><text id="text_18" transform="matrix(1.0000,0.0000,0.0000,1.0000,1005.0000,1116.73)" fill="#000000" style="font-size:20px;font-family:Arial;">gi 571798711 gb AHF48625.1  RNA-dependent RNA polymerase Sclerotinia sclerotiorum mitovirus 9</text><path d="M 1000 1110.0000000000002L 823.529411764706 1110.0000000000002" style="fill:none;stroke:#000000;stroke-linecap:round;stroke-miterlimit:10;" id="shape_52"/></g><g id="I71"><path d="M 1005 329.99999999999994L 1000 329.99999999999994" style="fill:none;stroke:#aaaaaa;stroke-width:0.3;stroke-linecap:round;stroke-miterlimit:10;stroke-dasharray:5,10;" id="shape_53"/><text id="text_19" transform="matrix(1.0000,0.0000,0.0000,1.0000,1005.0000,336.73)" fill="#000000" style="font-size:20px;font-family:Arial;">gi 571798721 gb AHF48630.1  RNA-dependent RNA polymerase Sclerotinia sclerotiorum mitovirus 14</text><path d="M 1000 329.99999999999994L 941.1764705882352 329.99999999999994" style="fill:none;stroke:#000000;stroke-linecap:round;stroke-miterlimit:10;" id="shape_54"/></g><g id="I1"><path d="M 882.3529411764706 862.4999999999998L 823.529411764706 862.4999999999998M 882.3529411764706 884.9999999999998L 882.3529411764706 839.9999999999997" style="fill:none;stroke:#000000;stroke-linecap:round;stroke-miterlimit:10;" id="shape_55"/></g><g id="I29"><path d="M 1005 1080.0000000000002L 1000 1080.0000000000002" style="fill:none;stroke:#aaaaaa;stroke-width:0.3;stroke-linecap:round;stroke-miterlimit:10;stroke-dasharray:5,10;" id="shape_56"/><text id="text_20" transform="matrix(1.0000,0.0000,0.0000,1.0000,1005.0000,1086.73)" fill="#000000" style="font-size:20px;font-family:Arial;">gi 571798723 gb AHF48631.1  RNA-dependent RNA polymerase Sclerotinia sclerotiorum mitovirus 15</text><path d="M 1000 1080.0000000000002L 764.7058823529411 1080.0000000000002" style="fill:none;stroke:#000000;stroke-linecap:round;stroke-miterlimit:10;" id="shape_57"/></g><g id="I37"><path d="M 1005 539.9999999999999L 1000 539.9999999999999" style="fill:none;stroke:#aaaaaa;stroke-width:0.3;stroke-linecap:round;stroke-miterlimit:10;stroke-dasharray:5,10;" id="shape_58"/><text id="text_21" transform="matrix(1.0000,0.0000,0.0000,1.0000,1005.0000,546.73)" fill="#000000" style="font-size:20px;font-family:Arial;">RdMV1</text><path d="M 1000 539.9999999999999L 941.1764705882352 539.9999999999999" style="fill:none;stroke:#000000;stroke-linecap:round;stroke-miterlimit:10;" id="shape_59"/></g><g id="I40"><path d="M 352.94117647058823 397.10449218749994L 294.11764705882354 397.10449218749994M 352.94117647058823 605.8886718749999L 352.94117647058823 188.32031250000003" style="fill:none;stroke:#000000;stroke-linecap:round;stroke-miterlimit:10;" id="shape_60"/></g><g id="I57"><path d="M 823.529411764706 416.24999999999994L 764.7058823529411 416.24999999999994M 823.529411764706 442.49999999999994L 823.529411764706 389.99999999999994" style="fill:none;stroke:#000000;stroke-linecap:round;stroke-miterlimit:10;" id="shape_61"/></g><g id="I31"><path d="M 1005 629.9999999999999L 1000 629.9999999999999" style="fill:none;stroke:#aaaaaa;stroke-width:0.3;stroke-linecap:round;stroke-miterlimit:10;stroke-dasharray:5,10;" id="shape_62"/><text id="text_22" transform="matrix(1.0000,0.0000,0.0000,1.0000,1005.0000,636.73)" fill="#000000" style="font-size:20px;font-family:Arial;">gi 571798705 gb AHF48622.1  RNA-dependent RNA polymerase Sclerotinia sclerotiorum mitovirus 6</text><path d="M 1000 629.9999999999999L 529.4117647058823 629.9999999999999" style="fill:none;stroke:#000000;stroke-linecap:round;stroke-miterlimit:10;" id="shape_63"/></g><g id="I36"><path d="M 941.1764705882352 554.9999999999998L 882.3529411764706 554.9999999999998M 941.1764705882352 569.9999999999999L 941.1764705882352 539.9999999999999" style="fill:none;stroke:#000000;stroke-linecap:round;stroke-miterlimit:10;" id="shape_64"/></g><g id="I58"><path d="M 882.3529411764706 442.49999999999994L 823.529411764706 442.49999999999994M 882.3529411764706 465L 882.3529411764706 419.9999999999999" style="fill:none;stroke:#000000;stroke-linecap:round;stroke-miterlimit:10;" id="shape_65"/></g><g id="I17"><path d="M 1005 1050L 1000 1050" style="fill:none;stroke:#aaaaaa;stroke-width:0.3;stroke-linecap:round;stroke-miterlimit:10;stroke-dasharray:5,10;" id="shape_66"/><text id="text_23" transform="matrix(1.0000,0.0000,0.0000,1.0000,1005.0000,1056.73)" fill="#000000" style="font-size:20px;font-family:Arial;">gi 440808113 gb AGC24231.1  RNA-dependent RNA polymerase Sclerotinia sclerotiorum mitovirus 2</text><path d="M 1000 1050L 941.1764705882352 1050" style="fill:none;stroke:#000000;stroke-linecap:round;stroke-miterlimit:10;" id="shape_67"/></g><g id="I53"><path d="M 1005 180.00000000000003L 1000 180.00000000000003" style="fill:none;stroke:#aaaaaa;stroke-width:0.3;stroke-linecap:round;stroke-miterlimit:10;stroke-dasharray:5,10;" id="shape_68"/><text id="text_24" transform="matrix(1.0000,0.0000,0.0000,1.0000,1005.0000,186.73)" fill="#000000" style="font-size:20px;font-family:Arial;">gi 571798715 gb AHF48627.1  RNA-dependent RNA polymerase Sclerotinia sclerotiorum mitovirus 11</text><path d="M 1000 180.00000000000003L 588.2352941176471 180.00000000000003" style="fill:none;stroke:#000000;stroke-linecap:round;stroke-miterlimit:10;" id="shape_69"/></g><g id="I55"><path d="M 705.8823529411765 336.5625L 647.0588235294118 336.5625M 705.8823529411765 388.125L 705.8823529411765 285" style="fill:none;stroke:#000000;stroke-linecap:round;stroke-miterlimit:10;" id="shape_70"/></g><g id="I16"><path d="M 1005 1020L 1000 1020" style="fill:none;stroke:#aaaaaa;stroke-width:0.3;stroke-linecap:round;stroke-miterlimit:10;stroke-dasharray:5,10;" id="shape_71"/><text id="text_25" transform="matrix(1.0000,0.0000,0.0000,1.0000,1005.0000,1026.73)" fill="#000000" style="font-size:20px;font-family:Arial;">gi 618765918 gb AHX84129.1  RNA-dependent RNA polymerase Sclerotinia sclerotiorum mitovirus 2</text><path d="M 1000 1020L 941.1764705882352 1020" style="fill:none;stroke:#000000;stroke-linecap:round;stroke-miterlimit:10;" id="shape_72"/></g><g id="I49"><path d="M 1005 120L 1000 120" style="fill:none;stroke:#aaaaaa;stroke-width:0.3;stroke-linecap:round;stroke-miterlimit:10;stroke-dasharray:5,10;" id="shape_73"/><text id="text_26" transform="matrix(1.0000,0.0000,0.0000,1.0000,1005.0000,126.73)" fill="#000000" style="font-size:20px;font-family:Arial;">MG256175</text><path d="M 1000 120L 941.1764705882352 120" style="fill:none;stroke:#000000;stroke-linecap:round;stroke-miterlimit:10;" id="shape_74"/></g><g id="I0"><path d="M 823.529411764706 836.2499999999998L 764.7058823529411 836.2499999999998M 823.529411764706 862.4999999999998L 823.529411764706 809.9999999999998" style="fill:none;stroke:#000000;stroke-linecap:round;stroke-miterlimit:10;" id="shape_75"/></g><g id="I63"><path d="M 1005 389.99999999999994L 1000 389.99999999999994" style="fill:none;stroke:#aaaaaa;stroke-width:0.3;stroke-linecap:round;stroke-miterlimit:10;stroke-dasharray:5,10;" id="shape_76"/><text id="text_27" transform="matrix(1.0000,0.0000,0.0000,1.0000,1005.0000,396.73)" fill="#000000" style="font-size:20px;font-family:Arial;">gi 571798717 gb AHF48628.1  RNA-dependent RNA polymerase Sclerotinia sclerotiorum mitovirus 12</text><path d="M 1000 389.99999999999994L 823.529411764706 389.99999999999994" style="fill:none;stroke:#000000;stroke-linecap:round;stroke-miterlimit:10;" id="shape_77"/></g><g id="I64"><path d="M 1005 359.99999999999994L 1000 359.99999999999994" style="fill:none;stroke:#aaaaaa;stroke-width:0.3;stroke-linecap:round;stroke-miterlimit:10;stroke-dasharray:5,10;" id="shape_78"/><text id="text_28" transform="matrix(1.0000,0.0000,0.0000,1.0000,1005.0000,366.73)" fill="#000000" style="font-size:20px;font-family:Arial;">gi 618765928 gb AHX84134.1  RNA-dependent RNA polymerase Sclerotinia sclerotiorum mitovirus 6</text><path d="M 1000 359.99999999999994L 764.7058823529411 359.99999999999994" style="fill:none;stroke:#000000;stroke-linecap:round;stroke-miterlimit:10;" id="shape_79"/></g><g id="I8"><path d="M 705.8823529411765 779.0624999999998L 647.0588235294118 779.0624999999998M 705.8823529411765 808.1249999999998L 705.8823529411765 749.9999999999998" style="fill:none;stroke:#000000;stroke-linecap:round;stroke-miterlimit:10;" id="shape_80"/></g><g id="I32"><path d="M 470.5882352941176 679.2773437499999L 411.764705882353 679.2773437499999M 470.5882352941176 758.5546874999999L 470.5882352941176 599.9999999999999" style="fill:none;stroke:#000000;stroke-linecap:round;stroke-miterlimit:10;" id="shape_81"/></g><g id="I2"><path d="M 1005 839.9999999999997L 1000 839.9999999999997" style="fill:none;stroke:#aaaaaa;stroke-width:0.3;stroke-linecap:round;stroke-miterlimit:10;stroke-dasharray:5,10;" id="shape_82"/><text id="text_29" transform="matrix(1.0000,0.0000,0.0000,1.0000,1005.0000,846.73)" fill="#000000" style="font-size:20px;font-family:Arial;">gi 618765922 gb AHX84131.1  RNA-dependent RNA polymerase Sclerotinia sclerotiorum mitovirus 5</text><path d="M 1000 839.9999999999997L 882.3529411764706 839.9999999999997" style="fill:none;stroke:#000000;stroke-linecap:round;stroke-miterlimit:10;" id="shape_83"/></g><g id="I39"><path d="M 1005 509.9999999999999L 1000 509.9999999999999" style="fill:none;stroke:#aaaaaa;stroke-width:0.3;stroke-linecap:round;stroke-miterlimit:10;stroke-dasharray:5,10;" id="shape_84"/><text id="text_30" transform="matrix(1.0000,0.0000,0.0000,1.0000,1005.0000,516.73)" fill="#000000" style="font-size:20px;font-family:Arial;">RiMV1</text><path d="M 1000 509.9999999999999L 882.3529411764706 509.9999999999999" style="fill:none;stroke:#000000;stroke-linecap:round;stroke-miterlimit:10;" id="shape_85"/></g><g id="I42"><path d="M 235.2941176470588 155.526123046875L 176.47058823529412 155.526123046875M 235.2941176470588 251.05224609374997L 235.2941176470588 60" style="fill:none;stroke:#000000;stroke-linecap:round;stroke-miterlimit:10;" id="shape_86"/></g><g id="I18"><path d="M 941.1764705882352 944.9999999999999L 823.529411764706 944.9999999999999M 941.1764705882352 959.9999999999999L 941.1764705882352 929.9999999999998" style="fill:none;stroke:#000000;stroke-linecap:round;stroke-miterlimit:10;" id="shape_87"/></g><g id="I35"><path d="M 882.3529411764706 532.4999999999999L 411.764705882353 532.4999999999999M 882.3529411764706 554.9999999999998L 882.3529411764706 509.9999999999999" style="fill:none;stroke:#000000;stroke-linecap:round;stroke-miterlimit:10;" id="shape_88"/></g><g id="I59"><path d="M 1005 419.9999999999999L 1000 419.9999999999999" style="fill:none;stroke:#aaaaaa;stroke-width:0.3;stroke-linecap:round;stroke-miterlimit:10;stroke-dasharray:5,10;" id="shape_89"/><text id="text_31" transform="matrix(1.0000,0.0000,0.0000,1.0000,1005.0000,426.73)" fill="#000000" style="font-size:20px;font-family:Arial;">gi 571798707 gb AHF48623.1  RNA-dependent RNA polymerase Sclerotinia sclerotiorum mitovirus 7</text><path d="M 1000 419.9999999999999L 882.3529411764706 419.9999999999999" style="fill:none;stroke:#000000;stroke-linecap:round;stroke-miterlimit:10;" id="shape_90"/></g><g id="I75"><path d="M 1005 689.9999999999998L 1000 689.9999999999998" style="fill:none;stroke:#aaaaaa;stroke-width:0.3;stroke-linecap:round;stroke-miterlimit:10;stroke-dasharray:5,10;" id="shape_91"/><text id="text_32" transform="matrix(1.0000,0.0000,0.0000,1.0000,1005.0000,696.73)" fill="#000000" style="font-size:20px;font-family:Arial;">gi 568599575 gb AHE13868.1  Pol Sclerotinia sclerotiorum mitovirus 6</text><path d="M 1000 689.9999999999998L 941.1764705882352 689.9999999999998" style="fill:none;stroke:#000000;stroke-linecap:round;stroke-miterlimit:10;" id="shape_92"/></g><g id="I10"><path d="M 588.2352941176471 887.109375L 529.4117647058823 887.109375M 588.2352941176471 1043.4375L 588.2352941176471 730.7812499999999" style="fill:none;stroke:#000000;stroke-linecap:round;stroke-miterlimit:10;" id="shape_93"/></g><g id="I30"><path d="M 529.4117647058823 758.5546874999999L 470.5882352941176 758.5546874999999M 529.4117647058823 887.109375L 529.4117647058823 629.9999999999999" style="fill:none;stroke:#000000;stroke-linecap:round;stroke-miterlimit:10;" id="shape_94"/></g><g id="I7"><path d="M 1005 779.9999999999998L 1000 779.9999999999998" style="fill:none;stroke:#aaaaaa;stroke-width:0.3;stroke-linecap:round;stroke-miterlimit:10;stroke-dasharray:5,10;" id="shape_95"/><text id="text_33" transform="matrix(1.0000,0.0000,0.0000,1.0000,1005.0000,786.73)" fill="#000000" style="font-size:20px;font-family:Arial;">gi 372290782 gb AEX91878.1  RNA-dependent RNA polymerases Sclerotinia sclerotiorum mitovirus 1</text><path d="M 1000 779.9999999999998L 764.7058823529411 779.9999999999998" style="fill:none;stroke:#000000;stroke-linecap:round;stroke-miterlimit:10;" id="shape_96"/></g><g id="I41"><path d="M 294.11764705882354 251.05224609374997L 235.2941176470588 251.05224609374997M 294.11764705882354 397.10449218749994L 294.11764705882354 105" style="fill:none;stroke:#000000;stroke-linecap:round;stroke-miterlimit:10;" id="shape_97"/></g><g id="I77"><path d="M 1005 659.9999999999998L 1000 659.9999999999998" style="fill:none;stroke:#aaaaaa;stroke-width:0.3;stroke-linecap:round;stroke-miterlimit:10;stroke-dasharray:5,10;" id="shape_98"/><text id="text_34" transform="matrix(1.0000,0.0000,0.0000,1.0000,1005.0000,666.73)" fill="#000000" style="font-size:20px;font-family:Arial;">gi 571798719 gb AHF48629.1  RNA-dependent RNA polymerase partial Sclerotinia sclerotiorum mitovirus 13</text><path d="M 1000 659.9999999999998L 882.3529411764706 659.9999999999998" style="fill:none;stroke:#000000;stroke-linecap:round;stroke-miterlimit:10;" id="shape_99"/></g><g id="I65"><path d="M 882.3529411764706 285L 705.8823529411765 285M 882.3529411764706 314.99999999999994L 882.3529411764706 255" style="fill:none;stroke:#000000;stroke-linecap:round;stroke-miterlimit:10;" id="shape_100"/></g><g id="I13"><path d="M 882.3529411764706 1012.5L 823.529411764706 1012.5M 882.3529411764706 1035L 882.3529411764706 989.9999999999999" style="fill:none;stroke:#000000;stroke-linecap:round;stroke-miterlimit:10;" id="shape_101"/></g><g id="I34"><path d="M 411.764705882353 605.8886718749999L 352.94117647058823 605.8886718749999M 411.764705882353 679.2773437499999L 411.764705882353 532.4999999999999" style="fill:none;stroke:#000000;stroke-linecap:round;stroke-miterlimit:10;" id="shape_102"/></g><g id="I52"><path d="M 588.2352941176471 226.64062500000003L 529.4117647058823 226.64062500000003M 588.2352941176471 273.28125L 588.2352941176471 180.00000000000003" style="fill:none;stroke:#000000;stroke-linecap:round;stroke-miterlimit:10;" id="shape_103"/></g><g id="I19"><path d="M 1005 929.9999999999998L 1000 929.9999999999998" style="fill:none;stroke:#aaaaaa;stroke-width:0.3;stroke-linecap:round;stroke-miterlimit:10;stroke-dasharray:5,10;" id="shape_104"/><text id="text_35" transform="matrix(1.0000,0.0000,0.0000,1.0000,1005.0000,936.73)" fill="#000000" style="font-size:20px;font-family:Arial;">SsMitoLV5</text><path d="M 1000 929.9999999999998L 941.1764705882352 929.9999999999998" style="fill:none;stroke:#000000;stroke-linecap:round;stroke-miterlimit:10;" id="shape_105"/></g><g id="I24"><path d="M 882.3529411764706 1162.5000000000005L 823.529411764706 1162.5000000000005M 882.3529411764706 1185.0000000000005L 882.3529411764706 1140.0000000000002" style="fill:none;stroke:#000000;stroke-linecap:round;stroke-miterlimit:10;" id="shape_106"/></g><g id="I66"><path d="M 941.1764705882352 255L 882.3529411764706 255M 941.1764705882352 270L 941.1764705882352 240" style="fill:none;stroke:#000000;stroke-linecap:round;stroke-miterlimit:10;" id="shape_107"/></g><g id="I60"><path d="M 941.1764705882352 465L 882.3529411764706 465M 941.1764705882352 479.99999999999994L 941.1764705882352 449.99999999999994" style="fill:none;stroke:#000000;stroke-linecap:round;stroke-miterlimit:10;" id="shape_108"/></g><g id="I45"><path d="M 1005 30L 1000 30" style="fill:none;stroke:#aaaaaa;stroke-width:0.3;stroke-linecap:round;stroke-miterlimit:10;stroke-dasharray:5,10;" id="shape_109"/><text id="text_36" transform="matrix(1.0000,0.0000,0.0000,1.0000,1005.0000,36.73)" fill="#000000" style="font-size:20px;font-family:Arial;">MG256174</text><path d="M 1000 30L 176.47058823529412 30" style="fill:none;stroke:#000000;stroke-linecap:round;stroke-miterlimit:10;" id="shape_110"/></g><g id="I9"><path d="M 647.0588235294118 730.7812499999999L 588.2352941176471 730.7812499999999M 647.0588235294118 779.0624999999998L 647.0588235294118 682.4999999999998" style="fill:none;stroke:#000000;stroke-linecap:round;stroke-miterlimit:10;" id="shape_111"/></g><g id="I14"><path d="M 1005 989.9999999999999L 1000 989.9999999999999" style="fill:none;stroke:#aaaaaa;stroke-width:0.3;stroke-linecap:round;stroke-miterlimit:10;stroke-dasharray:5,10;" id="shape_112"/><text id="text_37" transform="matrix(1.0000,0.0000,0.0000,1.0000,1005.0000,996.73)" fill="#000000" style="font-size:20px;font-family:Arial;">gi 372290784 gb AEX91879.1  RNA-dependent RNA polymerases Sclerotinia sclerotiorum mitovirus 2</text><path d="M 1000 989.9999999999999L 882.3529411764706 989.9999999999999" style="fill:none;stroke:#000000;stroke-linecap:round;stroke-miterlimit:10;" id="shape_113"/></g><g id="I3"><path d="M 941.1764705882352 884.9999999999998L 882.3529411764706 884.9999999999998M 941.1764705882352 899.9999999999997L 941.1764705882352 869.9999999999997" style="fill:none;stroke:#000000;stroke-linecap:round;stroke-miterlimit:10;" id="shape_114"/></g><g id="I78"><path d="M 1005 749.9999999999998L 1000 749.9999999999998" style="fill:none;stroke:#aaaaaa;stroke-width:0.3;stroke-linecap:round;stroke-miterlimit:10;stroke-dasharray:5,10;" id="shape_115"/><text id="text_38" transform="matrix(1.0000,0.0000,0.0000,1.0000,1005.0000,756.73)" fill="#000000" style="font-size:20px;font-family:Arial;">gi 440808117 gb AGC24233.1  RNA-dependent RNA polymerase Sclerotinia sclerotiorum mitovirus 4</text><path d="M 1000 749.9999999999998L 705.8823529411765 749.9999999999998" style="fill:none;stroke:#000000;stroke-linecap:round;stroke-miterlimit:10;" id="shape_116"/></g><g id="I38"><path d="M 1005 569.9999999999999L 1000 569.9999999999999" style="fill:none;stroke:#aaaaaa;stroke-width:0.3;stroke-linecap:round;stroke-miterlimit:10;stroke-dasharray:5,10;" id="shape_117"/><text id="text_39" transform="matrix(1.0000,0.0000,0.0000,1.0000,1005.0000,576.73)" fill="#000000" style="font-size:20px;font-family:Arial;">RirMV1</text><path d="M 1000 569.9999999999999L 941.1764705882352 569.9999999999999" style="fill:none;stroke:#000000;stroke-linecap:round;stroke-miterlimit:10;" id="shape_118"/></g><g id="I48"><path d="M 1005 90L 1000 90" style="fill:none;stroke:#aaaaaa;stroke-width:0.3;stroke-linecap:round;stroke-miterlimit:10;stroke-dasharray:5,10;" id="shape_119"/><text id="text_40" transform="matrix(1.0000,0.0000,0.0000,1.0000,1005.0000,96.73)" fill="#000000" style="font-size:20px;font-family:Arial;">MG256176</text><path d="M 1000 90L 941.1764705882352 90" style="fill:none;stroke:#000000;stroke-linecap:round;stroke-miterlimit:10;" id="shape_120"/></g><g id="NR0"><path d="M 117.6470588235294 46.38153076171875L 58.8235294117647 46.38153076171875M 117.6470588235294 92.7630615234375L 117.6470588235294 0" style="fill:none;stroke:#000000;stroke-linecap:round;stroke-miterlimit:10;" id="shape_121"/></g></g><g id="container_5"/><g id="container_6"/><g id="container_7"><text id="text_41" transform="matrix(1.0000,0.0000,0.0000,1.0000,647.0588,1050.45)" fill="#000000" text-anchor="middle" style="font-size:10px;font-family:Arial;">92</text><text id="text_42" transform="matrix(1.0000,0.0000,0.0000,1.0000,764.7059,985.76)" fill="#000000" text-anchor="middle" style="font-size:10px;font-family:Arial;">98</text><text id="text_43" transform="matrix(1.0000,0.0000,0.0000,1.0000,794.1176,1143.26)" fill="#000000" text-anchor="middle" style="font-size:10px;font-family:Arial;">80</text><text id="text_44" transform="matrix(1.0000,0.0000,0.0000,1.0000,764.7059,689.51)" fill="#000000" text-anchor="middle" style="font-size:10px;font-family:Arial;">100</text><text id="text_45" transform="matrix(1.0000,0.0000,0.0000,1.0000,617.6471,112.01)" fill="#000000" text-anchor="middle" style="font-size:10px;font-family:Arial;">100</text><text id="text_46" transform="matrix(1.0000,0.0000,0.0000,1.0000,735.2941,815.13)" fill="#000000" text-anchor="middle" style="font-size:10px;font-family:Arial;">100</text><text id="text_47" transform="matrix(1.0000,0.0000,0.0000,1.0000,441.1765,195.33)" fill="#000000" text-anchor="middle" style="font-size:10px;font-family:Arial;">51</text><text id="text_48" transform="matrix(1.0000,0.0000,0.0000,1.0000,911.7647,1192.01)" fill="#000000" text-anchor="middle" style="font-size:10px;font-family:Arial;">100</text><text id="text_49" transform="matrix(1.0000,0.0000,0.0000,1.0000,911.7647,322.01)" fill="#000000" text-anchor="middle" style="font-size:10px;font-family:Arial;">37</text><text id="text_50" transform="matrix(1.0000,0.0000,0.0000,1.0000,735.2941,395.13)" fill="#000000" text-anchor="middle" style="font-size:10px;font-family:Arial;">31</text><text id="text_51" transform="matrix(1.0000,0.0000,0.0000,1.0000,617.6471,280.29)" fill="#000000" text-anchor="middle" style="font-size:10px;font-family:Arial;">69</text><text id="text_52" transform="matrix(1.0000,0.0000,0.0000,1.0000,911.7647,712.01)" fill="#000000" text-anchor="middle" style="font-size:10px;font-family:Arial;">100</text><text id="text_53" transform="matrix(1.0000,0.0000,0.0000,1.0000,911.7647,1042.01)" fill="#000000" text-anchor="middle" style="font-size:10px;font-family:Arial;">95</text><text id="text_54" transform="matrix(1.0000,0.0000,0.0000,1.0000,735.2941,1115.13)" fill="#000000" text-anchor="middle" style="font-size:10px;font-family:Arial;">93</text><text id="text_55" transform="matrix(1.0000,0.0000,0.0000,1.0000,852.9412,869.51)" fill="#000000" text-anchor="middle" style="font-size:10px;font-family:Arial;">100</text><text id="text_56" transform="matrix(1.0000,0.0000,0.0000,1.0000,323.5294,404.11)" fill="#000000" text-anchor="middle" style="font-size:10px;font-family:Arial;">49</text><text id="text_57" transform="matrix(1.0000,0.0000,0.0000,1.0000,794.1176,423.26)" fill="#000000" text-anchor="middle" style="font-size:10px;font-family:Arial;">94</text><text id="text_58" transform="matrix(1.0000,0.0000,0.0000,1.0000,911.7647,562.01)" fill="#000000" text-anchor="middle" style="font-size:10px;font-family:Arial;">99</text><text id="text_59" transform="matrix(1.0000,0.0000,0.0000,1.0000,852.9412,449.51)" fill="#000000" text-anchor="middle" style="font-size:10px;font-family:Arial;">100</text><text id="text_60" transform="matrix(1.0000,0.0000,0.0000,1.0000,676.4706,343.57)" fill="#000000" text-anchor="middle" style="font-size:10px;font-family:Arial;">68</text><text id="text_61" transform="matrix(1.0000,0.0000,0.0000,1.0000,794.1176,843.26)" fill="#000000" text-anchor="middle" style="font-size:10px;font-family:Arial;">75</text><text id="text_62" transform="matrix(1.0000,0.0000,0.0000,1.0000,676.4706,786.07)" fill="#000000" text-anchor="middle" style="font-size:10px;font-family:Arial;">100</text><text id="text_63" transform="matrix(1.0000,0.0000,0.0000,1.0000,441.1765,686.29)" fill="#000000" text-anchor="middle" style="font-size:10px;font-family:Arial;">58</text><text id="text_64" transform="matrix(1.0000,0.0000,0.0000,1.0000,205.8824,162.53)" fill="#000000" text-anchor="middle" style="font-size:10px;font-family:Arial;">36</text><text id="text_65" transform="matrix(1.0000,0.0000,0.0000,1.0000,882.3529,952.01)" fill="#000000" text-anchor="middle" style="font-size:10px;font-family:Arial;">100</text><text id="text_66" transform="matrix(1.0000,0.0000,0.0000,1.0000,647.0588,539.51)" fill="#000000" text-anchor="middle" style="font-size:10px;font-family:Arial;">100</text><text id="text_67" transform="matrix(1.0000,0.0000,0.0000,1.0000,558.8235,894.12)" fill="#000000" text-anchor="middle" style="font-size:10px;font-family:Arial;">41</text><text id="text_68" transform="matrix(1.0000,0.0000,0.0000,1.0000,500.0000,765.56)" fill="#000000" text-anchor="middle" style="font-size:10px;font-family:Arial;">80</text><text id="text_69" transform="matrix(1.0000,0.0000,0.0000,1.0000,264.7059,258.06)" fill="#000000" text-anchor="middle" style="font-size:10px;font-family:Arial;">44</text><text id="text_70" transform="matrix(1.0000,0.0000,0.0000,1.0000,794.1176,292.01)" fill="#000000" text-anchor="middle" style="font-size:10px;font-family:Arial;">16</text><text id="text_71" transform="matrix(1.0000,0.0000,0.0000,1.0000,852.9412,1019.51)" fill="#000000" text-anchor="middle" style="font-size:10px;font-family:Arial;">97</text><text id="text_72" transform="matrix(1.0000,0.0000,0.0000,1.0000,382.3529,612.90)" fill="#000000" text-anchor="middle" style="font-size:10px;font-family:Arial;">20</text><text id="text_73" transform="matrix(1.0000,0.0000,0.0000,1.0000,558.8235,233.65)" fill="#000000" text-anchor="middle" style="font-size:10px;font-family:Arial;">95</text><text id="text_74" transform="matrix(1.0000,0.0000,0.0000,1.0000,852.9412,1169.51)" fill="#000000" text-anchor="middle" style="font-size:10px;font-family:Arial;">84</text><text id="text_75" transform="matrix(1.0000,0.0000,0.0000,1.0000,911.7647,262.01)" fill="#000000" text-anchor="middle" style="font-size:10px;font-family:Arial;">100</text><text id="text_76" transform="matrix(1.0000,0.0000,0.0000,1.0000,911.7647,472.01)" fill="#000000" text-anchor="middle" style="font-size:10px;font-family:Arial;">100</text><text id="text_77" transform="matrix(1.0000,0.0000,0.0000,1.0000,617.6471,737.79)" fill="#000000" text-anchor="middle" style="font-size:10px;font-family:Arial;">100</text><text id="text_78" transform="matrix(1.0000,0.0000,0.0000,1.0000,911.7647,892.01)" fill="#000000" text-anchor="middle" style="font-size:10px;font-family:Arial;">67</text></g><g id="container_8"/><g id="container_9"/></g><g id="container_10" transform="matrix(1.0000,0.0000,0.0000,1.0000,100.0000,100.00)"/></g></svg>