<svg xmlns="http://www.w3.org/2000/svg" xmlns:xlink="http://www.w3.org/1999/xlink" width="1855" height="944" style="border: 1px solid black; overflow: hidden;"><defs/><g id="container"><g id="container_1" transform="matrix(0.7198,0.0000,0.0000,0.7198,155.2632,50.00)"><g id="container_2"/><g id="container_3"/><g id="container_4"><g id="I11"><path d="M 461.53846153846155 737.1093750000005L 384.61538461538464 737.1093750000005M 461.53846153846155 893.4375000000006L 461.53846153846155 580.7812500000002" style="fill:none;stroke:#000000;stroke-linecap:round;stroke-miterlimit:10;" id="shape"/></g><g id="I12"><path d="M 615.3846153846155 893.4375000000006L 461.53846153846155 893.4375000000006M 615.3846153846155 958.1250000000006L 615.3846153846155 828.7500000000005" style="fill:none;stroke:#000000;stroke-linecap:round;stroke-miterlimit:10;" id="shape_1"/></g><g id="I51"><path d="M 769.2307692307693 266.25000000000006L 692.3076923076923 266.25000000000006M 769.2307692307693 292.5L 769.2307692307693 240" style="fill:none;stroke:#000000;stroke-linecap:round;stroke-miterlimit:10;" id="shape_2"/></g><g id="I22"><path d="M 692.3076923076923 958.1250000000006L 615.3846153846155 958.1250000000006M 692.3076923076923 986.2500000000006L 692.3076923076923 930.0000000000005" style="fill:none;stroke:#000000;stroke-linecap:round;stroke-miterlimit:10;" id="shape_3"/></g><g id="I5"><path d="M 1005.0000000000001 660.0000000000002L 1000.0000000000001 660.0000000000002" style="fill:none;stroke:#aaaaaa;stroke-width:0.3;stroke-linecap:round;stroke-miterlimit:10;stroke-dasharray:5,10;" id="shape_4"/><text id="text" transform="matrix(1.0000,0.0000,0.0000,1.0000,1005.0000,666.73)" fill="#000000" style="font-size:20px;font-family:Arial;">gi 615814998 gb AHX72146.1  RNA-dependent RNA polymerase Sclerotinia sclerotiorum mitovirus 1 HC025</text><path d="M 1000.0000000000001 660.0000000000002L 769.2307692307693 660.0000000000002" style="fill:none;stroke:#000000;stroke-linecap:round;stroke-miterlimit:10;" id="shape_5"/></g><g id="I47"><path d="M 538.4615384615386 136.40625L 461.53846153846155 136.40625M 538.4615384615386 182.8125L 538.4615384615386 90" style="fill:none;stroke:#000000;stroke-linecap:round;stroke-miterlimit:10;" id="shape_6"/></g><g id="I46"><path d="M 1005.0000000000001 60L 1000.0000000000001 60" style="fill:none;stroke:#aaaaaa;stroke-width:0.3;stroke-linecap:round;stroke-miterlimit:10;stroke-dasharray:5,10;" id="shape_7"/><text id="text_1" transform="matrix(1.0000,0.0000,0.0000,1.0000,1005.0000,66.73)" fill="#000000" style="font-size:20px;font-family:Arial;">gi 440808115 gb AGC24232.1  RNA-dependent RNA polymerase Sclerotinia sclerotiorum mitovirus 3</text><path d="M 1000.0000000000001 60L 461.53846153846155 60" style="fill:none;stroke:#000000;stroke-linecap:round;stroke-miterlimit:10;" id="shape_8"/></g><g id="I43"><path d="M 384.61538461538464 64.1015625L 230.76923076923077 64.1015625M 384.61538461538464 98.203125L 384.61538461538464 30" style="fill:none;stroke:#000000;stroke-linecap:round;stroke-miterlimit:10;" id="shape_9"/></g><g id="I6"><path d="M 692.3076923076923 658.1250000000003L 615.3846153846155 658.1250000000003M 692.3076923076923 686.2500000000003L 692.3076923076923 630.0000000000002" style="fill:none;stroke:#000000;stroke-linecap:round;stroke-miterlimit:10;" id="shape_10"/></g><g id="I50"><path d="M 692.3076923076923 230.625L 615.3846153846155 230.625M 692.3076923076923 266.25000000000006L 692.3076923076923 194.99999999999997" style="fill:none;stroke:#000000;stroke-linecap:round;stroke-miterlimit:10;" id="shape_11"/></g><g id="I20"><path d="M 1005.0000000000001 780.0000000000003L 1000.0000000000001 780.0000000000003" style="fill:none;stroke:#aaaaaa;stroke-width:0.3;stroke-linecap:round;stroke-miterlimit:10;stroke-dasharray:5,10;" id="shape_12"/><text id="text_2" transform="matrix(1.0000,0.0000,0.0000,1.0000,1005.0000,786.73)" fill="#000000" style="font-size:20px;font-family:Arial;">gi 568599569 gb AHE13865.1  Pol partial Sclerotinia sclerotiorum mitovirus 9</text><path d="M 1000.0000000000001 780.0000000000003L 923.0769230769231 780.0000000000003" style="fill:none;stroke:#000000;stroke-linecap:round;stroke-miterlimit:10;" id="shape_13"/></g><g id="I26"><path d="M 1005.0000000000001 990.0000000000006L 1000.0000000000001 990.0000000000006" style="fill:none;stroke:#aaaaaa;stroke-width:0.3;stroke-linecap:round;stroke-miterlimit:10;stroke-dasharray:5,10;" id="shape_14"/><text id="text_3" transform="matrix(1.0000,0.0000,0.0000,1.0000,1005.0000,996.73)" fill="#000000" style="font-size:20px;font-family:Arial;">gi 571798725 gb AHF48632.1  RNA-dependent RNA polymerase partial Sclerotinia sclerotiorum mitovirus 16</text><path d="M 1000.0000000000001 990.0000000000006L 846.1538461538463 990.0000000000006" style="fill:none;stroke:#000000;stroke-linecap:round;stroke-miterlimit:10;" id="shape_15"/></g><g id="I69"><path d="M 1005.0000000000001 690.0000000000003L 1000.0000000000001 690.0000000000003" style="fill:none;stroke:#aaaaaa;stroke-width:0.3;stroke-linecap:round;stroke-miterlimit:10;stroke-dasharray:5,10;" id="shape_16"/><text id="text_4" transform="matrix(1.0000,0.0000,0.0000,1.0000,1005.0000,696.73)" fill="#000000" style="font-size:20px;font-family:Arial;">gi 618765922 gb AHX84131.1  RNA-dependent RNA polymerase Sclerotinia sclerotiorum mitovirus 5</text><path d="M 1000.0000000000001 690.0000000000003L 846.1538461538463 690.0000000000003" style="fill:none;stroke:#000000;stroke-linecap:round;stroke-miterlimit:10;" id="shape_17"/></g><g id="I33"><path d="M 307.69230769230774 497.40234375000017L 230.76923076923077 497.40234375000017M 307.69230769230774 608.5546875000003L 307.69230769230774 386.2500000000001" style="fill:none;stroke:#000000;stroke-linecap:round;stroke-miterlimit:10;" id="shape_18"/></g><g id="I44"><path d="M 1005.0000000000001 30L 1000.0000000000001 30" style="fill:none;stroke:#aaaaaa;stroke-width:0.3;stroke-linecap:round;stroke-miterlimit:10;stroke-dasharray:5,10;" id="shape_19"/><text id="text_5" transform="matrix(1.0000,0.0000,0.0000,1.0000,1005.0000,36.73)" fill="#000000" style="font-size:20px;font-family:Arial;">gi 571798715 gb AHF48627.1  RNA-dependent RNA polymerase Sclerotinia sclerotiorum mitovirus 11</text><path d="M 1000.0000000000001 30L 384.61538461538464 30" style="fill:none;stroke:#000000;stroke-linecap:round;stroke-miterlimit:10;" id="shape_20"/></g><g id="I56"><path d="M 1005.0000000000001 300.00000000000006L 1000.0000000000001 300.00000000000006" style="fill:none;stroke:#aaaaaa;stroke-width:0.3;stroke-linecap:round;stroke-miterlimit:10;stroke-dasharray:5,10;" id="shape_21"/><text id="text_6" transform="matrix(1.0000,0.0000,0.0000,1.0000,1005.0000,306.73)" fill="#000000" style="font-size:20px;font-family:Arial;">SsMitoLV2</text><path d="M 1000.0000000000001 300.00000000000006L 923.0769230769231 300.00000000000006" style="fill:none;stroke:#000000;stroke-linecap:round;stroke-miterlimit:10;" id="shape_22"/></g><g id="I28"><path d="M 1005.0000000000001 1020.0000000000006L 1000.0000000000001 1020.0000000000006" style="fill:none;stroke:#aaaaaa;stroke-width:0.3;stroke-linecap:round;stroke-miterlimit:10;stroke-dasharray:5,10;" id="shape_23"/><text id="text_7" transform="matrix(1.0000,0.0000,0.0000,1.0000,1005.0000,1026.73)" fill="#000000" style="font-size:20px;font-family:Arial;">gi 571798713 gb AHF48626.1  RNA-dependent RNA polymerase partial Sclerotinia sclerotiorum mitovirus 10</text><path d="M 1000.0000000000001 1020.0000000000006L 923.0769230769231 1020.0000000000006" style="fill:none;stroke:#000000;stroke-linecap:round;stroke-miterlimit:10;" id="shape_24"/></g><g id="I68"><path d="M 1005.0000000000001 570.0000000000002L 1000.0000000000001 570.0000000000002" style="fill:none;stroke:#aaaaaa;stroke-width:0.3;stroke-linecap:round;stroke-miterlimit:10;stroke-dasharray:5,10;" id="shape_25"/><text id="text_8" transform="matrix(1.0000,0.0000,0.0000,1.0000,1005.0000,576.73)" fill="#000000" style="font-size:20px;font-family:Arial;">gi 568599575 gb AHE13868.1  Pol Sclerotinia sclerotiorum mitovirus 6</text><path d="M 1000.0000000000001 570.0000000000002L 923.0769230769231 570.0000000000002" style="fill:none;stroke:#000000;stroke-linecap:round;stroke-miterlimit:10;" id="shape_26"/></g><g id="I54"><path d="M 1005.0000000000001 270L 1000.0000000000001 270" style="fill:none;stroke:#aaaaaa;stroke-width:0.3;stroke-linecap:round;stroke-miterlimit:10;stroke-dasharray:5,10;" id="shape_27"/><text id="text_9" transform="matrix(1.0000,0.0000,0.0000,1.0000,1005.0000,276.73)" fill="#000000" style="font-size:20px;font-family:Arial;">gi 571798707 gb AHF48623.1  RNA-dependent RNA polymerase Sclerotinia sclerotiorum mitovirus 7</text><path d="M 1000.0000000000001 270L 846.1538461538463 270" style="fill:none;stroke:#000000;stroke-linecap:round;stroke-miterlimit:10;" id="shape_28"/></g><g id="I4"><path d="M 769.2307692307693 686.2500000000003L 692.3076923076923 686.2500000000003M 769.2307692307693 712.5000000000003L 769.2307692307693 660.0000000000002" style="fill:none;stroke:#000000;stroke-linecap:round;stroke-miterlimit:10;" id="shape_29"/></g><g id="I27"><path d="M 923.0769230769231 1035.0000000000007L 846.1538461538463 1035.0000000000007M 923.0769230769231 1050.0000000000005L 923.0769230769231 1020.0000000000006" style="fill:none;stroke:#000000;stroke-linecap:round;stroke-miterlimit:10;" id="shape_30"/></g><g id="I67"><path d="M 1005.0000000000001 540.0000000000002L 1000.0000000000001 540.0000000000002" style="fill:none;stroke:#aaaaaa;stroke-width:0.3;stroke-linecap:round;stroke-miterlimit:10;stroke-dasharray:5,10;" id="shape_31"/><text id="text_10" transform="matrix(1.0000,0.0000,0.0000,1.0000,1005.0000,546.73)" fill="#000000" style="font-size:20px;font-family:Arial;">SsMitoLV1</text><path d="M 1000.0000000000001 540.0000000000002L 923.0769230769231 540.0000000000002" style="fill:none;stroke:#000000;stroke-linecap:round;stroke-miterlimit:10;" id="shape_32"/></g><g id="I15"><path d="M 1005.0000000000001 840.0000000000005L 1000.0000000000001 840.0000000000005" style="fill:none;stroke:#aaaaaa;stroke-width:0.3;stroke-linecap:round;stroke-miterlimit:10;stroke-dasharray:5,10;" id="shape_33"/><text id="text_11" transform="matrix(1.0000,0.0000,0.0000,1.0000,1005.0000,846.73)" fill="#000000" style="font-size:20px;font-family:Arial;">gi 372290784 gb AEX91879.1  RNA-dependent RNA polymerases Sclerotinia sclerotiorum mitovirus 2</text><path d="M 1000.0000000000001 840.0000000000005L 846.1538461538463 840.0000000000005" style="fill:none;stroke:#000000;stroke-linecap:round;stroke-miterlimit:10;" id="shape_34"/></g><g id="I62"><path d="M 1005.0000000000001 120L 1000.0000000000001 120" style="fill:none;stroke:#aaaaaa;stroke-width:0.3;stroke-linecap:round;stroke-miterlimit:10;stroke-dasharray:5,10;" id="shape_35"/><text id="text_12" transform="matrix(1.0000,0.0000,0.0000,1.0000,1005.0000,126.73)" fill="#000000" style="font-size:20px;font-family:Arial;">SsMitoLV4</text><path d="M 1000.0000000000001 120L 923.0769230769231 120" style="fill:none;stroke:#000000;stroke-linecap:round;stroke-miterlimit:10;" id="shape_36"/></g><g id="I61"><path d="M 923.0769230769231 135L 615.3846153846155 135M 923.0769230769231 150L 923.0769230769231 120" style="fill:none;stroke:#000000;stroke-linecap:round;stroke-miterlimit:10;" id="shape_37"/></g><g id="I21"><path d="M 1005.0000000000001 810.0000000000003L 1000.0000000000001 810.0000000000003" style="fill:none;stroke:#aaaaaa;stroke-width:0.3;stroke-linecap:round;stroke-miterlimit:10;stroke-dasharray:5,10;" id="shape_38"/><text id="text_13" transform="matrix(1.0000,0.0000,0.0000,1.0000,1005.0000,816.73)" fill="#000000" style="font-size:20px;font-family:Arial;">SsMitoLV5</text><path d="M 1000.0000000000001 810.0000000000003L 923.0769230769231 810.0000000000003" style="fill:none;stroke:#000000;stroke-linecap:round;stroke-miterlimit:10;" id="shape_39"/></g><g id="I25"><path d="M 846.1538461538463 1012.5000000000006L 769.2307692307693 1012.5000000000006M 846.1538461538463 1035.0000000000007L 846.1538461538463 990.0000000000006" style="fill:none;stroke:#000000;stroke-linecap:round;stroke-miterlimit:10;" id="shape_40"/></g><g id="I23"><path d="M 769.2307692307693 986.2500000000006L 692.3076923076923 986.2500000000006M 769.2307692307693 1012.5000000000006L 769.2307692307693 960.0000000000005" style="fill:none;stroke:#000000;stroke-linecap:round;stroke-miterlimit:10;" id="shape_41"/></g><g id="I1"><path d="M 923.0769230769231 735.0000000000003L 846.1538461538463 735.0000000000003M 923.0769230769231 750.0000000000003L 923.0769230769231 720.0000000000003" style="fill:none;stroke:#000000;stroke-linecap:round;stroke-miterlimit:10;" id="shape_42"/></g><g id="I29"><path d="M 1005.0000000000001 1050.0000000000005L 1000.0000000000001 1050.0000000000005" style="fill:none;stroke:#aaaaaa;stroke-width:0.3;stroke-linecap:round;stroke-miterlimit:10;stroke-dasharray:5,10;" id="shape_43"/><text id="text_14" transform="matrix(1.0000,0.0000,0.0000,1.0000,1005.0000,1056.73)" fill="#000000" style="font-size:20px;font-family:Arial;">gi 618765930 gb AHX84135.1  RNA-dependent RNA polymerase Sclerotinia sclerotiorum mitovirus 7</text><path d="M 1000.0000000000001 1050.0000000000005L 923.0769230769231 1050.0000000000005" style="fill:none;stroke:#000000;stroke-linecap:round;stroke-miterlimit:10;" id="shape_44"/></g><g id="I37"><path d="M 1005.0000000000001 390.0000000000001L 1000.0000000000001 390.0000000000001" style="fill:none;stroke:#aaaaaa;stroke-width:0.3;stroke-linecap:round;stroke-miterlimit:10;stroke-dasharray:5,10;" id="shape_45"/><text id="text_15" transform="matrix(1.0000,0.0000,0.0000,1.0000,1005.0000,396.73)" fill="#000000" style="font-size:20px;font-family:Arial;">RiMV1</text><path d="M 1000.0000000000001 390.0000000000001L 846.1538461538463 390.0000000000001" style="fill:none;stroke:#000000;stroke-linecap:round;stroke-miterlimit:10;" id="shape_46"/></g><g id="I40"><path d="M 1005.0000000000001 450.0000000000001L 1000.0000000000001 450.0000000000001" style="fill:none;stroke:#aaaaaa;stroke-width:0.3;stroke-linecap:round;stroke-miterlimit:10;stroke-dasharray:5,10;" id="shape_47"/><text id="text_16" transform="matrix(1.0000,0.0000,0.0000,1.0000,1005.0000,456.73)" fill="#000000" style="font-size:20px;font-family:Arial;">RirMV1</text><path d="M 1000.0000000000001 450.0000000000001L 923.0769230769231 450.0000000000001" style="fill:none;stroke:#000000;stroke-linecap:round;stroke-miterlimit:10;" id="shape_48"/></g><g id="I57"><path d="M 1005.0000000000001 330.00000000000006L 1000.0000000000001 330.00000000000006" style="fill:none;stroke:#aaaaaa;stroke-width:0.3;stroke-linecap:round;stroke-miterlimit:10;stroke-dasharray:5,10;" id="shape_49"/><text id="text_17" transform="matrix(1.0000,0.0000,0.0000,1.0000,1005.0000,336.73)" fill="#000000" style="font-size:20px;font-family:Arial;">gi 568599571 gb AHE13866.1  Pol partial Sclerotinia sclerotiorum mitovirus 7</text><path d="M 1000.0000000000001 330.00000000000006L 923.0769230769231 330.00000000000006" style="fill:none;stroke:#000000;stroke-linecap:round;stroke-miterlimit:10;" id="shape_50"/></g><g id="I31"><path d="M 384.61538461538464 608.5546875000003L 307.69230769230774 608.5546875000003M 384.61538461538464 737.1093750000005L 384.61538461538464 480.00000000000017" style="fill:none;stroke:#000000;stroke-linecap:round;stroke-miterlimit:10;" id="shape_51"/></g><g id="I36"><path d="M 846.1538461538463 412.50000000000017L 769.2307692307693 412.50000000000017M 846.1538461538463 435.0000000000001L 846.1538461538463 390.0000000000001" style="fill:none;stroke:#000000;stroke-linecap:round;stroke-miterlimit:10;" id="shape_52"/></g><g id="I58"><path d="M 923.0769230769231 194.99999999999997L 692.3076923076923 194.99999999999997M 923.0769230769231 209.99999999999997L 923.0769230769231 180" style="fill:none;stroke:#000000;stroke-linecap:round;stroke-miterlimit:10;" id="shape_53"/></g><g id="I17"><path d="M 1005.0000000000001 870.0000000000005L 1000.0000000000001 870.0000000000005" style="fill:none;stroke:#aaaaaa;stroke-width:0.3;stroke-linecap:round;stroke-miterlimit:10;stroke-dasharray:5,10;" id="shape_54"/><text id="text_18" transform="matrix(1.0000,0.0000,0.0000,1.0000,1005.0000,876.73)" fill="#000000" style="font-size:20px;font-family:Arial;">gi 440808113 gb AGC24231.1  RNA-dependent RNA polymerase Sclerotinia sclerotiorum mitovirus 2</text><path d="M 1000.0000000000001 870.0000000000005L 923.0769230769231 870.0000000000005" style="fill:none;stroke:#000000;stroke-linecap:round;stroke-miterlimit:10;" id="shape_55"/></g><g id="I53"><path d="M 846.1538461538463 292.5L 769.2307692307693 292.5M 846.1538461538463 315.00000000000006L 846.1538461538463 270" style="fill:none;stroke:#000000;stroke-linecap:round;stroke-miterlimit:10;" id="shape_56"/></g><g id="I55"><path d="M 923.0769230769231 315.00000000000006L 846.1538461538463 315.00000000000006M 923.0769230769231 330.00000000000006L 923.0769230769231 300.00000000000006" style="fill:none;stroke:#000000;stroke-linecap:round;stroke-miterlimit:10;" id="shape_57"/></g><g id="I16"><path d="M 923.0769230769231 885.0000000000003L 846.1538461538463 885.0000000000003M 923.0769230769231 900.0000000000005L 923.0769230769231 870.0000000000005" style="fill:none;stroke:#000000;stroke-linecap:round;stroke-miterlimit:10;" id="shape_58"/></g><g id="I49"><path d="M 615.3846153846155 182.8125L 538.4615384615386 182.8125M 615.3846153846155 230.625L 615.3846153846155 135" style="fill:none;stroke:#000000;stroke-linecap:round;stroke-miterlimit:10;" id="shape_59"/></g><g id="I0"><path d="M 846.1538461538463 712.5000000000003L 769.2307692307693 712.5000000000003M 846.1538461538463 735.0000000000003L 846.1538461538463 690.0000000000003" style="fill:none;stroke:#000000;stroke-linecap:round;stroke-miterlimit:10;" id="shape_60"/></g><g id="I63"><path d="M 1005.0000000000001 150L 1000.0000000000001 150" style="fill:none;stroke:#aaaaaa;stroke-width:0.3;stroke-linecap:round;stroke-miterlimit:10;stroke-dasharray:5,10;" id="shape_61"/><text id="text_19" transform="matrix(1.0000,0.0000,0.0000,1.0000,1005.0000,156.73)" fill="#000000" style="font-size:20px;font-family:Arial;">gi 568599573 gb AHE13867.1  Pol partial Sclerotinia sclerotiorum mitovirus 8</text><path d="M 1000.0000000000001 150L 923.0769230769231 150" style="fill:none;stroke:#000000;stroke-linecap:round;stroke-miterlimit:10;" id="shape_62"/></g><g id="I64"><path d="M 846.1538461538463 532.5000000000002L 538.4615384615386 532.5000000000002M 846.1538461538463 555.0000000000002L 846.1538461538463 510.00000000000017" style="fill:none;stroke:#000000;stroke-linecap:round;stroke-miterlimit:10;" id="shape_63"/></g><g id="I8"><path d="M 615.3846153846155 629.0625000000002L 538.4615384615386 629.0625000000002M 615.3846153846155 658.1250000000003L 615.3846153846155 600.0000000000002" style="fill:none;stroke:#000000;stroke-linecap:round;stroke-miterlimit:10;" id="shape_64"/></g><g id="I32"><path d="M 1005.0000000000001 480.00000000000017L 1000.0000000000001 480.00000000000017" style="fill:none;stroke:#aaaaaa;stroke-width:0.3;stroke-linecap:round;stroke-miterlimit:10;stroke-dasharray:5,10;" id="shape_65"/><text id="text_20" transform="matrix(1.0000,0.0000,0.0000,1.0000,1005.0000,486.73)" fill="#000000" style="font-size:20px;font-family:Arial;">gi 571798705 gb AHF48622.1  RNA-dependent RNA polymerase Sclerotinia sclerotiorum mitovirus 6</text><path d="M 1000.0000000000001 480.00000000000017L 384.61538461538464 480.00000000000017" style="fill:none;stroke:#000000;stroke-linecap:round;stroke-miterlimit:10;" id="shape_66"/></g><g id="I2"><path d="M 1005.0000000000001 720.0000000000003L 1000.0000000000001 720.0000000000003" style="fill:none;stroke:#aaaaaa;stroke-width:0.3;stroke-linecap:round;stroke-miterlimit:10;stroke-dasharray:5,10;" id="shape_67"/><text id="text_21" transform="matrix(1.0000,0.0000,0.0000,1.0000,1005.0000,726.73)" fill="#000000" style="font-size:20px;font-family:Arial;">gi 618765924 gb AHX84132.1  RNA-dependent RNA polymerase Sclerotinia sclerotiorum mitovirus 5</text><path d="M 1000.0000000000001 720.0000000000003L 923.0769230769231 720.0000000000003" style="fill:none;stroke:#000000;stroke-linecap:round;stroke-miterlimit:10;" id="shape_68"/></g><g id="I39"><path d="M 1005.0000000000001 420.0000000000001L 1000.0000000000001 420.0000000000001" style="fill:none;stroke:#aaaaaa;stroke-width:0.3;stroke-linecap:round;stroke-miterlimit:10;stroke-dasharray:5,10;" id="shape_69"/><text id="text_22" transform="matrix(1.0000,0.0000,0.0000,1.0000,1005.0000,426.73)" fill="#000000" style="font-size:20px;font-family:Arial;">RdMV1</text><path d="M 1000.0000000000001 420.0000000000001L 923.0769230769231 420.0000000000001" style="fill:none;stroke:#000000;stroke-linecap:round;stroke-miterlimit:10;" id="shape_70"/></g><g id="I42"><path d="M 1005.0000000000001 0L 1000.0000000000001 0" style="fill:none;stroke:#aaaaaa;stroke-width:0.3;stroke-linecap:round;stroke-miterlimit:10;stroke-dasharray:5,10;" id="shape_71"/><text id="text_23" transform="matrix(1.0000,0.0000,0.0000,1.0000,1005.0000,6.73)" fill="#000000" style="font-size:20px;font-family:Arial;">NP 660178.1 RNA-dependent RNA polymerase Saccharomyces 20S RNA narnavirus</text><path d="M 1000.0000000000001 0L 153.84615384615387 0" style="fill:none;stroke:#000000;stroke-linecap:round;stroke-miterlimit:10;" id="shape_72"/></g><g id="I18"><path d="M 1005.0000000000001 900.0000000000005L 1000.0000000000001 900.0000000000005" style="fill:none;stroke:#aaaaaa;stroke-width:0.3;stroke-linecap:round;stroke-miterlimit:10;stroke-dasharray:5,10;" id="shape_73"/><text id="text_24" transform="matrix(1.0000,0.0000,0.0000,1.0000,1005.0000,906.73)" fill="#000000" style="font-size:20px;font-family:Arial;">gi 618765918 gb AHX84129.1  RNA-dependent RNA polymerase Sclerotinia sclerotiorum mitovirus 2</text><path d="M 1000.0000000000001 900.0000000000005L 923.0769230769231 900.0000000000005" style="fill:none;stroke:#000000;stroke-linecap:round;stroke-miterlimit:10;" id="shape_74"/></g><g id="I35"><path d="M 1005.0000000000001 360.00000000000006L 1000.0000000000001 360.00000000000006" style="fill:none;stroke:#aaaaaa;stroke-width:0.3;stroke-linecap:round;stroke-miterlimit:10;stroke-dasharray:5,10;" id="shape_75"/><text id="text_25" transform="matrix(1.0000,0.0000,0.0000,1.0000,1005.0000,366.73)" fill="#000000" style="font-size:20px;font-family:Arial;">RdMV2</text><path d="M 1000.0000000000001 360.00000000000006L 769.2307692307693 360.00000000000006" style="fill:none;stroke:#000000;stroke-linecap:round;stroke-miterlimit:10;" id="shape_76"/></g><g id="I59"><path d="M 1005.0000000000001 180L 1000.0000000000001 180" style="fill:none;stroke:#aaaaaa;stroke-width:0.3;stroke-linecap:round;stroke-miterlimit:10;stroke-dasharray:5,10;" id="shape_77"/><text id="text_26" transform="matrix(1.0000,0.0000,0.0000,1.0000,1005.0000,186.73)" fill="#000000" style="font-size:20px;font-family:Arial;">gi 571798721 gb AHF48630.1  RNA-dependent RNA polymerase Sclerotinia sclerotiorum mitovirus 14</text><path d="M 1000.0000000000001 180L 923.0769230769231 180" style="fill:none;stroke:#000000;stroke-linecap:round;stroke-miterlimit:10;" id="shape_78"/></g><g id="I10"><path d="M 538.4615384615386 580.7812500000002L 461.53846153846155 580.7812500000002M 538.4615384615386 629.0625000000002L 538.4615384615386 532.5000000000002" style="fill:none;stroke:#000000;stroke-linecap:round;stroke-miterlimit:10;" id="shape_79"/></g><g id="I30"><path d="M 1005.0000000000001 930.0000000000005L 1000.0000000000001 930.0000000000005" style="fill:none;stroke:#aaaaaa;stroke-width:0.3;stroke-linecap:round;stroke-miterlimit:10;stroke-dasharray:5,10;" id="shape_80"/><text id="text_27" transform="matrix(1.0000,0.0000,0.0000,1.0000,1005.0000,936.73)" fill="#000000" style="font-size:20px;font-family:Arial;">gi 571798723 gb AHF48631.1  RNA-dependent RNA polymerase Sclerotinia sclerotiorum mitovirus 15</text><path d="M 1000.0000000000001 930.0000000000005L 692.3076923076923 930.0000000000005" style="fill:none;stroke:#000000;stroke-linecap:round;stroke-miterlimit:10;" id="shape_81"/></g><g id="I7"><path d="M 1005.0000000000001 630.0000000000002L 1000.0000000000001 630.0000000000002" style="fill:none;stroke:#aaaaaa;stroke-width:0.3;stroke-linecap:round;stroke-miterlimit:10;stroke-dasharray:5,10;" id="shape_82"/><text id="text_28" transform="matrix(1.0000,0.0000,0.0000,1.0000,1005.0000,636.73)" fill="#000000" style="font-size:20px;font-family:Arial;">gi 372290782 gb AEX91878.1  RNA-dependent RNA polymerases Sclerotinia sclerotiorum mitovirus 1</text><path d="M 1000.0000000000001 630.0000000000002L 692.3076923076923 630.0000000000002" style="fill:none;stroke:#000000;stroke-linecap:round;stroke-miterlimit:10;" id="shape_83"/></g><g id="I41"><path d="M 230.76923076923077 280.75195312500006L 153.84615384615387 280.75195312500006M 230.76923076923077 497.40234375000017L 230.76923076923077 64.1015625" style="fill:none;stroke:#000000;stroke-linecap:round;stroke-miterlimit:10;" id="shape_84"/></g><g id="I65"><path d="M 1005.0000000000001 510.00000000000017L 1000.0000000000001 510.00000000000017" style="fill:none;stroke:#aaaaaa;stroke-width:0.3;stroke-linecap:round;stroke-miterlimit:10;stroke-dasharray:5,10;" id="shape_85"/><text id="text_29" transform="matrix(1.0000,0.0000,0.0000,1.0000,1005.0000,516.73)" fill="#000000" style="font-size:20px;font-family:Arial;">gi 571798719 gb AHF48629.1  RNA-dependent RNA polymerase partial Sclerotinia sclerotiorum mitovirus 13</text><path d="M 1000.0000000000001 510.00000000000017L 846.1538461538463 510.00000000000017" style="fill:none;stroke:#000000;stroke-linecap:round;stroke-miterlimit:10;" id="shape_86"/></g><g id="I13"><path d="M 769.2307692307693 828.7500000000005L 615.3846153846155 828.7500000000005M 769.2307692307693 862.5000000000005L 769.2307692307693 795.0000000000005" style="fill:none;stroke:#000000;stroke-linecap:round;stroke-miterlimit:10;" id="shape_87"/></g><g id="I34"><path d="M 769.2307692307693 386.2500000000001L 307.69230769230774 386.2500000000001M 769.2307692307693 412.50000000000017L 769.2307692307693 360.00000000000006" style="fill:none;stroke:#000000;stroke-linecap:round;stroke-miterlimit:10;" id="shape_88"/></g><g id="I66"><path d="M 923.0769230769231 555.0000000000002L 846.1538461538463 555.0000000000002M 923.0769230769231 570.0000000000002L 923.0769230769231 540.0000000000002" style="fill:none;stroke:#000000;stroke-linecap:round;stroke-miterlimit:10;" id="shape_89"/></g><g id="I24"><path d="M 1005.0000000000001 960.0000000000005L 1000.0000000000001 960.0000000000005" style="fill:none;stroke:#aaaaaa;stroke-width:0.3;stroke-linecap:round;stroke-miterlimit:10;stroke-dasharray:5,10;" id="shape_90"/><text id="text_30" transform="matrix(1.0000,0.0000,0.0000,1.0000,1005.0000,966.73)" fill="#000000" style="font-size:20px;font-family:Arial;">gi 571798711 gb AHF48625.1  RNA-dependent RNA polymerase Sclerotinia sclerotiorum mitovirus 9</text><path d="M 1000.0000000000001 960.0000000000005L 769.2307692307693 960.0000000000005" style="fill:none;stroke:#000000;stroke-linecap:round;stroke-miterlimit:10;" id="shape_91"/></g><g id="I19"><path d="M 923.0769230769231 795.0000000000005L 769.2307692307693 795.0000000000005M 923.0769230769231 810.0000000000003L 923.0769230769231 780.0000000000003" style="fill:none;stroke:#000000;stroke-linecap:round;stroke-miterlimit:10;" id="shape_92"/></g><g id="I52"><path d="M 1005.0000000000001 240L 1000.0000000000001 240" style="fill:none;stroke:#aaaaaa;stroke-width:0.3;stroke-linecap:round;stroke-miterlimit:10;stroke-dasharray:5,10;" id="shape_93"/><text id="text_31" transform="matrix(1.0000,0.0000,0.0000,1.0000,1005.0000,246.73)" fill="#000000" style="font-size:20px;font-family:Arial;">gi 571798717 gb AHF48628.1  RNA-dependent RNA polymerase Sclerotinia sclerotiorum mitovirus 12</text><path d="M 1000.0000000000001 240L 769.2307692307693 240" style="fill:none;stroke:#000000;stroke-linecap:round;stroke-miterlimit:10;" id="shape_94"/></g><g id="I45"><path d="M 461.53846153846155 98.203125L 384.61538461538464 98.203125M 461.53846153846155 136.40625L 461.53846153846155 60" style="fill:none;stroke:#000000;stroke-linecap:round;stroke-miterlimit:10;" id="shape_95"/></g><g id="I60"><path d="M 1005.0000000000001 209.99999999999997L 1000.0000000000001 209.99999999999997" style="fill:none;stroke:#aaaaaa;stroke-width:0.3;stroke-linecap:round;stroke-miterlimit:10;stroke-dasharray:5,10;" id="shape_96"/><text id="text_32" transform="matrix(1.0000,0.0000,0.0000,1.0000,1005.0000,216.73)" fill="#000000" style="font-size:20px;font-family:Arial;">gi 618765926 gb AHX84133.1  RNA-dependent RNA polymerase Sclerotinia sclerotiorum mitovirus 6</text><path d="M 1000.0000000000001 209.99999999999997L 923.0769230769231 209.99999999999997" style="fill:none;stroke:#000000;stroke-linecap:round;stroke-miterlimit:10;" id="shape_97"/></g><g id="I9"><path d="M 1005.0000000000001 600.0000000000002L 1000.0000000000001 600.0000000000002" style="fill:none;stroke:#aaaaaa;stroke-width:0.3;stroke-linecap:round;stroke-miterlimit:10;stroke-dasharray:5,10;" id="shape_98"/><text id="text_33" transform="matrix(1.0000,0.0000,0.0000,1.0000,1005.0000,606.73)" fill="#000000" style="font-size:20px;font-family:Arial;">gi 440808117 gb AGC24233.1  RNA-dependent RNA polymerase Sclerotinia sclerotiorum mitovirus 4</text><path d="M 1000.0000000000001 600.0000000000002L 615.3846153846155 600.0000000000002" style="fill:none;stroke:#000000;stroke-linecap:round;stroke-miterlimit:10;" id="shape_99"/></g><g id="I14"><path d="M 846.1538461538463 862.5000000000005L 769.2307692307693 862.5000000000005M 846.1538461538463 885.0000000000003L 846.1538461538463 840.0000000000005" style="fill:none;stroke:#000000;stroke-linecap:round;stroke-miterlimit:10;" id="shape_100"/></g><g id="I3"><path d="M 1005.0000000000001 750.0000000000003L 1000.0000000000001 750.0000000000003" style="fill:none;stroke:#aaaaaa;stroke-width:0.3;stroke-linecap:round;stroke-miterlimit:10;stroke-dasharray:5,10;" id="shape_101"/><text id="text_34" transform="matrix(1.0000,0.0000,0.0000,1.0000,1005.0000,756.73)" fill="#000000" style="font-size:20px;font-family:Arial;">gi 618765920 gb AHX84130.1  RNA-dependent RNA polymerase Sclerotinia sclerotiorum mitovirus 5</text><path d="M 1000.0000000000001 750.0000000000003L 923.0769230769231 750.0000000000003" style="fill:none;stroke:#000000;stroke-linecap:round;stroke-miterlimit:10;" id="shape_102"/></g><g id="I38"><path d="M 923.0769230769231 435.0000000000001L 846.1538461538463 435.0000000000001M 923.0769230769231 450.0000000000001L 923.0769230769231 420.0000000000001" style="fill:none;stroke:#000000;stroke-linecap:round;stroke-miterlimit:10;" id="shape_103"/></g><g id="I48"><path d="M 1005.0000000000001 90L 1000.0000000000001 90" style="fill:none;stroke:#aaaaaa;stroke-width:0.3;stroke-linecap:round;stroke-miterlimit:10;stroke-dasharray:5,10;" id="shape_104"/><text id="text_35" transform="matrix(1.0000,0.0000,0.0000,1.0000,1005.0000,96.73)" fill="#000000" style="font-size:20px;font-family:Arial;">gi 618765928 gb AHX84134.1  RNA-dependent RNA polymerase Sclerotinia sclerotiorum mitovirus 6</text><path d="M 1000.0000000000001 90L 538.4615384615386 90" style="fill:none;stroke:#000000;stroke-linecap:round;stroke-miterlimit:10;" id="shape_105"/></g><g id="NR0"><path d="M 153.84615384615387 140.37597656250003L 76.92307692307693 140.37597656250003M 153.84615384615387 280.75195312500006L 153.84615384615387 0" style="fill:none;stroke:#000000;stroke-linecap:round;stroke-miterlimit:10;" id="shape_106"/></g></g><g id="container_5"/><g id="container_6"/><g id="container_7"><text id="text_36" transform="matrix(1.0000,0.0000,0.0000,1.0000,423.0769,744.12)" fill="#000000" text-anchor="middle" style="font-size:10px;font-family:Arial;">56</text><text id="text_37" transform="matrix(1.0000,0.0000,0.0000,1.0000,538.4615,900.45)" fill="#000000" text-anchor="middle" style="font-size:10px;font-family:Arial;">86</text><text id="text_38" transform="matrix(1.0000,0.0000,0.0000,1.0000,730.7692,273.26)" fill="#000000" text-anchor="middle" style="font-size:10px;font-family:Arial;">77</text><text id="text_39" transform="matrix(1.0000,0.0000,0.0000,1.0000,653.8462,965.13)" fill="#000000" text-anchor="middle" style="font-size:10px;font-family:Arial;">86</text><text id="text_40" transform="matrix(1.0000,0.0000,0.0000,1.0000,500.0000,143.41)" fill="#000000" text-anchor="middle" style="font-size:10px;font-family:Arial;">48</text><text id="text_41" transform="matrix(1.0000,0.0000,0.0000,1.0000,307.6923,71.11)" fill="#000000" text-anchor="middle" style="font-size:10px;font-family:Arial;">83</text><text id="text_42" transform="matrix(1.0000,0.0000,0.0000,1.0000,653.8462,665.13)" fill="#000000" text-anchor="middle" style="font-size:10px;font-family:Arial;">99</text><text id="text_43" transform="matrix(1.0000,0.0000,0.0000,1.0000,653.8462,237.63)" fill="#000000" text-anchor="middle" style="font-size:10px;font-family:Arial;">9</text><text id="text_44" transform="matrix(1.0000,0.0000,0.0000,1.0000,269.2308,504.41)" fill="#000000" text-anchor="middle" style="font-size:10px;font-family:Arial;">47</text><text id="text_45" transform="matrix(1.0000,0.0000,0.0000,1.0000,730.7692,693.26)" fill="#000000" text-anchor="middle" style="font-size:10px;font-family:Arial;">59</text><text id="text_46" transform="matrix(1.0000,0.0000,0.0000,1.0000,884.6154,1042.01)" fill="#000000" text-anchor="middle" style="font-size:10px;font-family:Arial;">100</text><text id="text_47" transform="matrix(1.0000,0.0000,0.0000,1.0000,769.2308,142.01)" fill="#000000" text-anchor="middle" style="font-size:10px;font-family:Arial;">100</text><text id="text_48" transform="matrix(1.0000,0.0000,0.0000,1.0000,807.6923,1019.51)" fill="#000000" text-anchor="middle" style="font-size:10px;font-family:Arial;">85</text><text id="text_49" transform="matrix(1.0000,0.0000,0.0000,1.0000,730.7692,993.26)" fill="#000000" text-anchor="middle" style="font-size:10px;font-family:Arial;">84</text><text id="text_50" transform="matrix(1.0000,0.0000,0.0000,1.0000,884.6154,742.01)" fill="#000000" text-anchor="middle" style="font-size:10px;font-family:Arial;">69</text><text id="text_51" transform="matrix(1.0000,0.0000,0.0000,1.0000,346.1538,615.56)" fill="#000000" text-anchor="middle" style="font-size:10px;font-family:Arial;">75</text><text id="text_52" transform="matrix(1.0000,0.0000,0.0000,1.0000,807.6923,419.51)" fill="#000000" text-anchor="middle" style="font-size:10px;font-family:Arial;">79</text><text id="text_53" transform="matrix(1.0000,0.0000,0.0000,1.0000,807.6923,202.01)" fill="#000000" text-anchor="middle" style="font-size:10px;font-family:Arial;">34</text><text id="text_54" transform="matrix(1.0000,0.0000,0.0000,1.0000,807.6923,299.51)" fill="#000000" text-anchor="middle" style="font-size:10px;font-family:Arial;">99</text><text id="text_55" transform="matrix(1.0000,0.0000,0.0000,1.0000,884.6154,322.01)" fill="#000000" text-anchor="middle" style="font-size:10px;font-family:Arial;">100</text><text id="text_56" transform="matrix(1.0000,0.0000,0.0000,1.0000,884.6154,892.01)" fill="#000000" text-anchor="middle" style="font-size:10px;font-family:Arial;">95</text><text id="text_57" transform="matrix(1.0000,0.0000,0.0000,1.0000,576.9231,189.82)" fill="#000000" text-anchor="middle" style="font-size:10px;font-family:Arial;">21</text><text id="text_58" transform="matrix(1.0000,0.0000,0.0000,1.0000,807.6923,719.51)" fill="#000000" text-anchor="middle" style="font-size:10px;font-family:Arial;">100</text><text id="text_59" transform="matrix(1.0000,0.0000,0.0000,1.0000,692.3077,539.51)" fill="#000000" text-anchor="middle" style="font-size:10px;font-family:Arial;">99</text><text id="text_60" transform="matrix(1.0000,0.0000,0.0000,1.0000,576.9231,636.07)" fill="#000000" text-anchor="middle" style="font-size:10px;font-family:Arial;">98</text><text id="text_61" transform="matrix(1.0000,0.0000,0.0000,1.0000,500.0000,587.79)" fill="#000000" text-anchor="middle" style="font-size:10px;font-family:Arial;">96</text><text id="text_62" transform="matrix(1.0000,0.0000,0.0000,1.0000,692.3077,835.76)" fill="#000000" text-anchor="middle" style="font-size:10px;font-family:Arial;">96</text><text id="text_63" transform="matrix(1.0000,0.0000,0.0000,1.0000,538.4615,393.26)" fill="#000000" text-anchor="middle" style="font-size:10px;font-family:Arial;">57</text><text id="text_64" transform="matrix(1.0000,0.0000,0.0000,1.0000,884.6154,562.01)" fill="#000000" text-anchor="middle" style="font-size:10px;font-family:Arial;">100</text><text id="text_65" transform="matrix(1.0000,0.0000,0.0000,1.0000,846.1538,802.01)" fill="#000000" text-anchor="middle" style="font-size:10px;font-family:Arial;">100</text><text id="text_66" transform="matrix(1.0000,0.0000,0.0000,1.0000,423.0769,105.21)" fill="#000000" text-anchor="middle" style="font-size:10px;font-family:Arial;">56</text><text id="text_67" transform="matrix(1.0000,0.0000,0.0000,1.0000,807.6923,869.51)" fill="#000000" text-anchor="middle" style="font-size:10px;font-family:Arial;">93</text><text id="text_68" transform="matrix(1.0000,0.0000,0.0000,1.0000,884.6154,442.01)" fill="#000000" text-anchor="middle" style="font-size:10px;font-family:Arial;">98</text></g><g id="container_8"/><g id="container_9"/></g><g id="container_10" transform="matrix(1.0000,0.0000,0.0000,1.0000,100.0000,100.00)"/></g></svg>