<?xml version="1.0" encoding="utf-8"?>
<!-- Generator: Adobe Illustrator 22.0.1, SVG Export Plug-In . SVG Version: 6.00 Build 0)  -->
<svg version="1.1" id="Layer_1" xmlns="http://www.w3.org/2000/svg" xmlns:xlink="http://www.w3.org/1999/xlink" x="0px" y="0px"
	 viewBox="0 0 1855 944" style="enable-background:new 0 0 1855 944;" xml:space="preserve">
<style type="text/css">
	.st0{fill:none;stroke:#000000;stroke-linecap:round;stroke-miterlimit:10;}
	.st1{fill:none;stroke:#AAAAAA;stroke-width:0.3;stroke-linecap:round;stroke-miterlimit:10;stroke-dasharray:5,10;}
	.st2{font-family:'ArialMT';}
	.st3{font-size:14.396px;}
	.st4{font-size:7.198px;}
</style>
<g id="container_2">
</g>
<g id="container_3">
</g>
<g id="I11">
	<path id="shape" class="st0" d="M487.5,580.6h-55.4 M487.5,693.1V468"/>
</g>
<g id="I12">
	<path id="shape_1" class="st0" d="M598.2,693.1H487.5 M598.2,739.7v-93.1"/>
</g>
<g id="I51">
	<path id="shape_2" class="st0" d="M709,241.6H542.8 M709,260.5v-37.8"/>
</g>
<g id="I22">
	<path id="shape_3" class="st0" d="M653.6,739.7h-55.4 M653.6,759.9v-40.5"/>
</g>
<g id="I5">
	<path id="shape_4" class="st1" d="M878.7,525.1h-3.6"/>
	<text id="text" transform="matrix(1 0 0 1 878.6621 529.9125)" class="st2 st3">gi 615814998 gb AHX72146.1 RNA-dependent RNA polymerase Sclerotinia sclerotiorum mitovirus 1 HC025</text>
	<path id="shape_5" class="st0" d="M875.1,525.1H709"/>
</g>
<path id="shape_6" class="st0" d="M542.8,148.2h-55.4 M542.8,241.9V114.8"/>
<g id="I46">
	<path id="shape_7" class="st1" d="M878.7,93.2h-3.6"/>
	<text id="text_1" transform="matrix(1 0 0 1 878.6621 98.0321)" class="st2 st3">gi 440808115 gb AGC24232.1 RNA-dependent RNA polymerase Sclerotinia sclerotiorum mitovirus 3</text>
	<path id="shape_8" class="st0" d="M875.1,93.2H487.5"/>
</g>
<g id="I43">
	<path id="shape_9" class="st0" d="M432.1,96.1H321.4 M432.1,120.7V71.6"/>
</g>
<g id="I6">
	<path id="shape_10" class="st0" d="M653.6,523.7h-55.4 M653.6,544v-40.5"/>
</g>
<g id="I20">
	<path id="shape_12" class="st1" d="M879,622.2h-3.6"/>
	<text id="text_2" transform="matrix(1 0 0 1 878.9538 627.0385)" class="st2 st3">gi 568599569 gb AHE13865.1 Pol partial Sclerotinia sclerotiorum mitovirus 9</text>
	<path id="shape_13" class="st0" d="M875.4,622.2H820"/>
</g>
<g id="I26">
	<path id="shape_14" class="st1" d="M878.7,762.6h-3.6"/>
	<text id="text_3" transform="matrix(1 0 0 1 878.6621 767.4467)" class="st2 st3">gi 571798725 gb AHF48632.1 RNA-dependent RNA polymerase partial Sclerotinia sclerotiorum mitovirus 16</text>
	<path id="shape_15" class="st0" d="M875.1,762.6H764.3"/>
</g>
<g id="I69">
	<path id="shape_16" class="st1" d="M878.7,546.7h-3.6"/>
	<text id="text_4" transform="matrix(1 0 0 1 878.6621 551.5062)" class="st2 st3">gi 618765922 gb AHX84131.1 RNA-dependent RNA polymerase Sclerotinia sclerotiorum mitovirus 5</text>
	<path id="shape_17" class="st0" d="M875.1,546.7H764.3"/>
</g>
<g id="I33">
	<path id="shape_18" class="st0" d="M376.7,408h-55.4 M376.7,488V328"/>
</g>
<g id="I44">
	<path id="shape_19" class="st1" d="M878.7,71.6h-3.6"/>
	<text id="text_5" transform="matrix(1 0 0 1 878.6621 76.4383)" class="st2 st3">gi 571798715 gb AHF48627.1 RNA-dependent RNA polymerase Sclerotinia sclerotiorum mitovirus 11</text>
	<path id="shape_20" class="st0" d="M875.1,71.6h-443"/>
</g>
<g id="I28">
	<path id="shape_23" class="st1" d="M878.7,784.2h-3.6"/>
	<text id="text_7" transform="matrix(1 0 0 1 878.6621 789.0404)" class="st2 st3">gi 571798713 gb AHF48626.1 RNA-dependent RNA polymerase partial Sclerotinia sclerotiorum mitovirus 10</text>
	<path id="shape_24" class="st0" d="M875.1,784.2h-55.4"/>
</g>
<g id="I68">
	<path id="shape_25" class="st1" d="M878.9,449.5h-3.6"/>
	<text id="text_8" transform="matrix(1 0 0 1 878.9121 454.3802)" class="st2 st3">gi 568599575 gb AHE13868.1 Pol Sclerotinia sclerotiorum mitovirus 6</text>
	<path id="shape_26" class="st0" d="M875.3,449.5h-55.4"/>
</g>
<g id="I54">
	<path id="shape_27" class="st1" d="M878.7,244.3h-3.6"/>
	<text id="text_9" transform="matrix(1 0 0 1 878.6621 249.1903)" class="st2 st3">gi 571798707 gb AHF48623.1 RNA-dependent RNA polymerase Sclerotinia sclerotiorum mitovirus 7</text>
	<path id="shape_28" class="st0" d="M875.1,244.3H764.3"/>
</g>
<g id="I4">
	<path id="shape_29" class="st0" d="M709,544h-55.4 M709,562.9v-37.8"/>
</g>
<g id="I27">
	<path id="shape_30" class="st0" d="M819.7,795h-55.4 M819.7,805.8v-21.6"/>
</g>
<g id="I15">
	<path id="shape_33" class="st1" d="M878.7,654.6h-3.6"/>
	<text id="text_11" transform="matrix(1 0 0 1 878.6621 659.476)" class="st2 st3">gi 372290784 gb AEX91879.1 RNA-dependent RNA polymerases Sclerotinia sclerotiorum mitovirus 2</text>
	<path id="shape_34" class="st0" d="M875.1,654.6H764.3"/>
</g>
<path id="shape_37" class="st0" d="M819.7,148.2H542.8"/>
<g id="I25">
	<path id="shape_40" class="st0" d="M764.3,778.8H709 M764.3,795v-32.4"/>
</g>
<g id="I23">
	<path id="shape_41" class="st0" d="M709,759.9h-55.4 M709,778.8V741"/>
</g>
<g id="I1">
	<path id="shape_42" class="st0" d="M819.7,579.1h-55.4 M819.7,589.8v-21.6"/>
</g>
<g id="I29">
	<path id="shape_43" class="st1" d="M878.7,805.8h-3.6"/>
	<text id="text_14" transform="matrix(1 0 0 1 878.6621 810.6342)" class="st2 st3">gi 618765930 gb AHX84135.1 RNA-dependent RNA polymerase Sclerotinia sclerotiorum mitovirus 7</text>
	<path id="shape_44" class="st0" d="M875.1,805.8h-55.4"/>
</g>
<g id="I37">
	<path id="shape_45" class="st1" d="M878.7,330.7h-3.6"/>
	<text id="text_15" transform="matrix(1 0 0 1 878.6621 335.5663)" class="st2 st3">RiMV1</text>
	<path id="shape_46" class="st0" d="M875.1,330.7H764.3"/>
</g>
<g id="I40">
	<path id="shape_47" class="st1" d="M878.7,373.9h-3.6"/>
	<text id="text_16" transform="matrix(1 0 0 1 878.6621 378.7543)" class="st2 st3">RirMV1</text>
	<path id="shape_48" class="st0" d="M875.1,373.9h-55.4"/>
</g>
<path id="shape_49" class="st1" d="M878.7,276.5h-3.6"/>
<text id="text_17" transform="matrix(1 0 0 1 878.6621 281.3783)" class="st2 st3">gi 568599571 gb AHE13866.1 Pol partial Sclerotinia sclerotiorum mitovirus 7</text>
<path id="shape_50" class="st0" d="M875.1,276.5H764"/>
<g id="I31">
	<path id="shape_51" class="st0" d="M432.1,488h-55.4 M432.1,580.6V395.5"/>
</g>
<g id="I36">
	<path id="shape_52" class="st0" d="M764.3,346.9H709 M764.3,363.1v-32.4"/>
</g>
<g id="I17">
	<path id="shape_54" class="st1" d="M878.7,676.2h-3.6"/>
	<text id="text_18" transform="matrix(1 0 0 1 878.6621 681.0697)" class="st2 st3">gi 440808113 gb AGC24231.1 RNA-dependent RNA polymerase Sclerotinia sclerotiorum mitovirus 2</text>
	<path id="shape_55" class="st0" d="M875.1,676.2h-55.4"/>
</g>
<g id="I53">
	<path id="shape_56" class="st0" d="M764.3,260.5H709 M764.3,276.7v-32.4"/>
</g>
<g id="I16">
	<path id="shape_58" class="st0" d="M819.7,687h-55.4 M819.7,697.8v-21.6"/>
</g>
<g id="I0">
	<path id="shape_60" class="st0" d="M764.3,562.9H709 M764.3,579.1v-32.4"/>
</g>
<g id="I63">
	<path id="shape_61" class="st1" d="M878.6,148.2H875"/>
	<text id="text_19" transform="matrix(1 0 0 1 878.6205 153.0226)" class="st2 st3">gi 568599573 gb AHE13867.1 Pol partial Sclerotinia sclerotiorum mitovirus 8</text>
	<path id="shape_62" class="st0" d="M875,148.2h-55.4"/>
</g>
<g id="I64">
	<path id="shape_63" class="st0" d="M764.3,433.3H542.8 M764.3,449.5v-32.4"/>
</g>
<g id="I8">
	<path id="shape_64" class="st0" d="M598.2,502.8h-55.4 M598.2,523.7v-41.8"/>
</g>
<g id="I32">
	<path id="shape_65" class="st1" d="M878.7,395.5h-3.6"/>
	<text id="text_20" transform="matrix(1 0 0 1 878.6621 400.348)" class="st2 st3">gi 571798705 gb AHF48622.1 RNA-dependent RNA polymerase Sclerotinia sclerotiorum mitovirus 6</text>
	<path id="shape_66" class="st0" d="M875.1,395.5h-443"/>
</g>
<g id="I2">
	<path id="shape_67" class="st1" d="M878.7,568.3h-3.6"/>
	<text id="text_21" transform="matrix(1 0 0 1 878.6621 573.1)" class="st2 st3">gi 618765924 gb AHX84132.1 RNA-dependent RNA polymerase Sclerotinia sclerotiorum mitovirus 5</text>
	<path id="shape_68" class="st0" d="M875.1,568.3h-55.4"/>
</g>
<g id="I39">
	<path id="shape_69" class="st1" d="M878.7,352.3h-3.6"/>
	<text id="text_22" transform="matrix(1 0 0 1 878.6621 357.16)" class="st2 st3">RdMV1</text>
	<path id="shape_70" class="st0" d="M875.1,352.3h-55.4"/>
</g>
<g id="I42">
	<path id="shape_71" class="st1" d="M878.7,50h-3.6"/>
	<text id="text_23" transform="matrix(1 0 0 1 878.6621 54.8441)" class="st2 st3">NP 660178.1 RNA-dependent RNA polymerase Saccharomyces 20S RNA narnavirus</text>
	<path id="shape_72" class="st0" d="M875.1,50H266"/>
</g>
<g id="I18">
	<path id="shape_73" class="st1" d="M878.7,697.8h-3.6"/>
	<text id="text_24" transform="matrix(1 0 0 1 878.6621 702.6644)" class="st2 st3">gi 618765918 gb AHX84129.1 RNA-dependent RNA polymerase Sclerotinia sclerotiorum mitovirus 2</text>
	<path id="shape_74" class="st0" d="M875.1,697.8h-55.4"/>
</g>
<g id="I35">
	<path id="shape_75" class="st1" d="M878.7,309.1h-3.6"/>
	<text id="text_25" transform="matrix(1 0 0 1 878.6621 313.972)" class="st2 st3">RdMV2</text>
	<path id="shape_76" class="st0" d="M875.1,309.1H709"/>
</g>
<path id="shape_77" class="st1" d="M878.7,179.6h-3.6"/>
<text id="text_26" transform="matrix(1 0 0 1 878.6621 184.4081)" class="st2 st3">gi 571798721 gb AHF48630.1 RNA-dependent RNA polymerase Sclerotinia sclerotiorum mitovirus 14</text>
<path id="shape_78" class="st0" d="M875.1,179.6H543"/>
<g id="I10">
	<path id="shape_79" class="st0" d="M542.8,468h-55.4 M542.8,502.8v-69.5"/>
</g>
<g id="I30">
	<path id="shape_80" class="st1" d="M878.7,719.4h-3.6"/>
	<text id="text_27" transform="matrix(1 0 0 1 878.6621 724.2582)" class="st2 st3">gi 571798723 gb AHF48631.1 RNA-dependent RNA polymerase Sclerotinia sclerotiorum mitovirus 15</text>
	<path id="shape_81" class="st0" d="M875.1,719.4H653.6"/>
</g>
<g id="I7">
	<path id="shape_82" class="st1" d="M878.7,503.5h-3.6"/>
	<text id="text_28" transform="matrix(1 0 0 1 878.6621 508.3177)" class="st2 st3">gi 372290782 gb AEX91878.1 RNA-dependent RNA polymerases Sclerotinia sclerotiorum mitovirus 1</text>
	<path id="shape_83" class="st0" d="M875.1,503.5H653.6"/>
</g>
<g id="I41">
	<path id="shape_84" class="st0" d="M321.4,252.1H266 M321.4,408V96.1"/>
</g>
<g id="I65">
	<path id="shape_85" class="st1" d="M878.7,417.1h-3.6"/>
	<text id="text_29" transform="matrix(1 0 0 1 878.6621 421.9418)" class="st2 st3">gi 571798719 gb AHF48629.1 RNA-dependent RNA polymerase partial Sclerotinia sclerotiorum mitovirus 13</text>
	<path id="shape_86" class="st0" d="M875.1,417.1H764.3"/>
</g>
<g id="I13">
	<path id="shape_87" class="st0" d="M709,646.5H598.2 M709,670.8v-48.6"/>
</g>
<g id="I34">
	<path id="shape_88" class="st0" d="M709,328H376.7 M709,346.9v-37.8"/>
</g>
<path id="shape_89" class="st0" d="M819.7,449.5h-55.4"/>
<g id="I24">
	<path id="shape_90" class="st1" d="M878.7,741h-3.6"/>
	<text id="text_30" transform="matrix(1 0 0 1 878.6621 745.8519)" class="st2 st3">gi 571798711 gb AHF48625.1 RNA-dependent RNA polymerase Sclerotinia sclerotiorum mitovirus 9</text>
	<path id="shape_91" class="st0" d="M875.1,741H709"/>
</g>
<path id="shape_92" class="st0" d="M819.7,622.2H709"/>
<g id="I52">
	<path id="shape_93" class="st1" d="M878.7,222.8h-3.6"/>
	<text id="text_31" transform="matrix(1 0 0 1 878.6621 227.5961)" class="st2 st3">gi 571798717 gb AHF48628.1 RNA-dependent RNA polymerase Sclerotinia sclerotiorum mitovirus 12</text>
	<path id="shape_94" class="st0" d="M875.1,222.8H709"/>
</g>
<g id="I45">
	<path id="shape_95" class="st0" d="M487.5,120.7h-55.4 M487.5,148.2v-55"/>
</g>
<path id="shape_96" class="st1" d="M878.7,201.2h-3.6"/>
<text id="text_32" transform="matrix(1 0 0 1 878.6621 206.0023)" class="st2 st3">gi 618765926 gb AHX84133.1 RNA-dependent RNA polymerase Sclerotinia sclerotiorum mitovirus 6</text>
<path id="shape_97" class="st0" d="M875.1,201.2H543"/>
<g id="I9">
	<path id="shape_98" class="st1" d="M878.7,481.9h-3.6"/>
	<text id="text_33" transform="matrix(1 0 0 1 878.6621 486.724)" class="st2 st3">gi 440808117 gb AGC24233.1 RNA-dependent RNA polymerase Sclerotinia sclerotiorum mitovirus 4</text>
	<path id="shape_99" class="st0" d="M875.1,481.9H598.2"/>
</g>
<g id="I14">
	<path id="shape_100" class="st0" d="M764.3,670.8H709 M764.3,687v-32.4"/>
</g>
<g id="I3">
	<path id="shape_101" class="st1" d="M878.7,589.8h-3.6"/>
	<text id="text_34" transform="matrix(1 0 0 1 878.6621 594.6947)" class="st2 st3">gi 618765920 gb AHX84130.1 RNA-dependent RNA polymerase Sclerotinia sclerotiorum mitovirus 5</text>
	<path id="shape_102" class="st0" d="M875.1,589.8h-55.4"/>
</g>
<g id="I38">
	<path id="shape_103" class="st0" d="M819.7,363.1h-55.4 M819.7,373.9v-21.6"/>
</g>
<g id="I48">
	<path id="shape_104" class="st1" d="M878.7,114.8h-3.6"/>
	<text id="text_35" transform="matrix(1 0 0 1 878.6621 119.6263)" class="st2 st3">gi 618765928 gb AHX84134.1 RNA-dependent RNA polymerase Sclerotinia sclerotiorum mitovirus 6</text>
	<path id="shape_105" class="st0" d="M875.1,114.8H542.8"/>
</g>
<g id="NR0">
	<path id="shape_106" class="st0" d="M266,151h-55.4 M266,252.1V50"/>
</g>
<g id="container_5">
</g>
<g id="container_6">
</g>
<text id="text_36" transform="matrix(1 0 0 1 455.791 585.6176)" class="st2 st4">56</text>
<text id="text_37" transform="matrix(1 0 0 1 538.8447 698.1439)" class="st2 st4">86</text>
<text id="text_38" transform="matrix(1 0 0 1 677.2676 246.6927)" class="st2 st4">77</text>
<text id="text_39" transform="matrix(1 0 0 1 621.8984 744.7006)" class="st2 st4">86</text>
<text id="text_40" transform="matrix(1 0 0 1 511.1602 153.2264)" class="st2 st4">48</text>
<text id="text_41" transform="matrix(1 0 0 1 372.7363 101.1849)" class="st2 st4">83</text>
<text id="text_42" transform="matrix(1 0 0 1 621.8984 528.7601)" class="st2 st4">99</text>
<text id="text_44" transform="matrix(1 0 0 1 345.0527 413.0741)" class="st2 st4">47</text>
<text id="text_45" transform="matrix(1 0 0 1 677.2676 549.0082)" class="st2 st4">59</text>
<text id="text_46" transform="matrix(1 0 0 1 786.0039 800.0385)" class="st2 st4">100</text>
<text id="text_48" transform="matrix(1 0 0 1 732.6367 783.8431)" class="st2 st4">85</text>
<text id="text_49" transform="matrix(1 0 0 1 677.2676 764.9486)" class="st2 st4">84</text>
<text id="text_50" transform="matrix(1 0 0 1 788.0059 584.099)" class="st2 st4">69</text>
<text id="text_51" transform="matrix(1 0 0 1 400.4219 493.0795)" class="st2 st4">75</text>
<text id="text_52" transform="matrix(1 0 0 1 732.6367 351.9633)" class="st2 st4">79</text>
<text id="text_54" transform="matrix(1 0 0 1 732.6367 265.5873)" class="st2 st4">99</text>
<text id="text_56" transform="matrix(1 0 0 1 788.0059 692.0687)" class="st2 st4">95</text>
<text id="text_58" transform="matrix(1 0 0 1 730.6348 567.9037)" class="st2 st4">100</text>
<text id="text_59" transform="matrix(1 0 0 1 649.583 438.3392)" class="st2 st4">99</text>
<text id="text_60" transform="matrix(1 0 0 1 566.5293 507.8431)" class="st2 st4">98</text>
<text id="text_61" transform="matrix(1 0 0 1 511.1602 473.0912)" class="st2 st4">96</text>
<text id="text_62" transform="matrix(1 0 0 1 649.583 651.5795)" class="st2 st4">96</text>
<text id="text_63" transform="matrix(1 0 0 1 538.8447 333.0687)" class="st2 st4">57</text>
<text id="text_66" transform="matrix(1 0 0 1 455.791 125.7298)" class="st2 st4">56</text>
<text id="text_67" transform="matrix(1 0 0 1 732.6367 675.8734)" class="st2 st4">93</text>
<text id="text_68" transform="matrix(1 0 0 1 788.0059 368.1586)" class="st2 st4">98</text>
<g id="container_8">
</g>
<g id="container_9">
</g>
<g id="container_10" transform="matrix(1.0000,0.0000,0.0000,1.0000,100.0000,100.00)">
</g>
</svg>
