<svg xmlns="http://www.w3.org/2000/svg" xmlns:xlink="http://www.w3.org/1999/xlink" width="1855" height="944" style="border: 1px solid black; overflow: hidden;"><defs/><g id="container"><g id="container_1" transform="matrix(0.7381,0.0000,0.0000,0.7381,50.0000,50.00)"><g id="container_2"/><g id="container_3"/><g id="container_4"><g id="I11"><path d="M 384.6153846153845 323.0859375L 307.6923076923077 323.0859375M 384.6153846153845 473.671875L 384.6153846153845 172.5" style="fill:none;stroke:#000000;stroke-linecap:round;stroke-miterlimit:10;" id="shape"/></g><g id="I29"><path d="M 846.1538461538461 772.5L 692.3076923076922 772.5M 846.1538461538461 795L 846.1538461538461 750" style="fill:none;stroke:#000000;stroke-linecap:round;stroke-miterlimit:10;" id="shape_1"/></g><g id="I37"><path d="M 923.076923076923 915L 846.1538461538461 915M 923.076923076923 930L 923.076923076923 900" style="fill:none;stroke:#000000;stroke-linecap:round;stroke-miterlimit:10;" id="shape_2"/></g><g id="I40"><path d="M 1004.9999999999999 870L 999.9999999999999 870" style="fill:none;stroke:#aaaaaa;stroke-width:0.3;stroke-linecap:round;stroke-miterlimit:10;stroke-dasharray:5,10;" id="shape_3"/><text id="text" transform="matrix(1.0000,0.0000,0.0000,1.0000,1005.0000,876.73)" fill="#000000" style="font-size:20px;font-family:Arial;">ALD89136.1 RNA-dependent RNA polymerase  Sclerotinia sclerotiorum mitovirus 19</text><path d="M 999.9999999999999 870L 846.1538461538461 870" style="fill:none;stroke:#000000;stroke-linecap:round;stroke-miterlimit:10;" id="shape_4"/></g><g id="I57"><path d="M 1004.9999999999999 270L 999.9999999999999 270" style="fill:none;stroke:#aaaaaa;stroke-width:0.3;stroke-linecap:round;stroke-miterlimit:10;stroke-dasharray:5,10;" id="shape_5"/><text id="text_1" transform="matrix(1.0000,0.0000,0.0000,1.0000,1005.0000,276.73)" fill="#000000" style="font-size:20px;font-family:Arial;">ALD89101.1 RNA-dependent RNA polymerase partial  Macrophomina phaseolina mitovirus 2</text><path d="M 999.9999999999999 270L 923.076923076923 270" style="fill:none;stroke:#000000;stroke-linecap:round;stroke-miterlimit:10;" id="shape_6"/></g><g id="I12"><path d="M 307.6923076923077 202.79296875L 230.76923076923075 202.79296875M 307.6923076923077 323.0859375L 307.6923076923077 82.5" style="fill:none;stroke:#000000;stroke-linecap:round;stroke-miterlimit:10;" id="shape_7"/></g><g id="I31"><path d="M 1004.9999999999999 780L 999.9999999999999 780" style="fill:none;stroke:#aaaaaa;stroke-width:0.3;stroke-linecap:round;stroke-miterlimit:10;stroke-dasharray:5,10;" id="shape_8"/><text id="text_2" transform="matrix(1.0000,0.0000,0.0000,1.0000,1005.0000,786.73)" fill="#000000" style="font-size:20px;font-family:Arial;">ALD89102.1 RNA-dependent RNA polymerase partial  Rhizoctonia solani mitovirus 10</text><path d="M 999.9999999999999 780L 923.076923076923 780" style="fill:none;stroke:#000000;stroke-linecap:round;stroke-miterlimit:10;" id="shape_9"/></g><g id="I36"><path d="M 846.1538461538461 892.5L 769.230769230769 892.5M 846.1538461538461 915L 846.1538461538461 870" style="fill:none;stroke:#000000;stroke-linecap:round;stroke-miterlimit:10;" id="shape_10"/></g><g id="I58"><path d="M 923.076923076923 405L 846.1538461538461 405M 923.076923076923 420L 923.076923076923 390" style="fill:none;stroke:#000000;stroke-linecap:round;stroke-miterlimit:10;" id="shape_11"/></g><g id="I17"><path d="M 1004.9999999999999 60L 999.9999999999999 60" style="fill:none;stroke:#aaaaaa;stroke-width:0.3;stroke-linecap:round;stroke-miterlimit:10;stroke-dasharray:5,10;" id="shape_12"/><text id="text_3" transform="matrix(1.0000,0.0000,0.0000,1.0000,1005.0000,66.73)" fill="#000000" style="font-size:20px;font-family:Arial;">RiMV1</text><path d="M 999.9999999999999 60L 846.1538461538461 60" style="fill:none;stroke:#000000;stroke-linecap:round;stroke-miterlimit:10;" id="shape_13"/></g><g id="I51"><path d="M 1004.9999999999999 510L 999.9999999999999 510" style="fill:none;stroke:#aaaaaa;stroke-width:0.3;stroke-linecap:round;stroke-miterlimit:10;stroke-dasharray:5,10;" id="shape_14"/><text id="text_4" transform="matrix(1.0000,0.0000,0.0000,1.0000,1005.0000,516.73)" fill="#000000" style="font-size:20px;font-family:Arial;">AEP83726.1 RNA-dependent RNA polymerase  Tuber excavatum mitovirus</text><path d="M 999.9999999999999 510L 846.1538461538461 510" style="fill:none;stroke:#000000;stroke-linecap:round;stroke-miterlimit:10;" id="shape_15"/></g><g id="I22"><path d="M 1004.9999999999999 150L 999.9999999999999 150" style="fill:none;stroke:#aaaaaa;stroke-width:0.3;stroke-linecap:round;stroke-miterlimit:10;stroke-dasharray:5,10;" id="shape_16"/><text id="text_5" transform="matrix(1.0000,0.0000,0.0000,1.0000,1005.0000,156.73)" fill="#000000" style="font-size:20px;font-family:Arial;">ALD89120.1 RNA-dependent RNA polymerase  Rhizoctonia solani mitovirus 15</text><path d="M 999.9999999999999 150L 846.1538461538461 150" style="fill:none;stroke:#000000;stroke-linecap:round;stroke-miterlimit:10;" id="shape_17"/></g><g id="I5"><path d="M 923.076923076923 345L 846.1538461538461 345M 923.076923076923 360L 923.076923076923 330" style="fill:none;stroke:#000000;stroke-linecap:round;stroke-miterlimit:10;" id="shape_18"/></g><g id="I53"><path d="M 1004.9999999999999 540L 999.9999999999999 540" style="fill:none;stroke:#aaaaaa;stroke-width:0.3;stroke-linecap:round;stroke-miterlimit:10;stroke-dasharray:5,10;" id="shape_19"/><text id="text_6" transform="matrix(1.0000,0.0000,0.0000,1.0000,1005.0000,546.73)" fill="#000000" style="font-size:20px;font-family:Arial;">BAJ23143.2 RNA-directed RNA polymerase  Rhizophagus sp. RF1 mitovirus</text><path d="M 999.9999999999999 540L 923.076923076923 540" style="fill:none;stroke:#000000;stroke-linecap:round;stroke-miterlimit:10;" id="shape_20"/></g><g id="I46"><path d="M 923.076923076923 705L 846.1538461538461 705M 923.076923076923 720L 923.076923076923 690" style="fill:none;stroke:#000000;stroke-linecap:round;stroke-miterlimit:10;" id="shape_21"/></g><g id="I47"><path d="M 1004.9999999999999 690L 999.9999999999999 690" style="fill:none;stroke:#aaaaaa;stroke-width:0.3;stroke-linecap:round;stroke-miterlimit:10;stroke-dasharray:5,10;" id="shape_22"/><text id="text_7" transform="matrix(1.0000,0.0000,0.0000,1.0000,1005.0000,696.73)" fill="#000000" style="font-size:20px;font-family:Arial;">AHX84131.1 RNA-dependent RNA polymerase  Sclerotinia sclerotiorum mitovirus 5</text><path d="M 999.9999999999999 690L 923.076923076923 690" style="fill:none;stroke:#000000;stroke-linecap:round;stroke-miterlimit:10;" id="shape_23"/></g><g id="I43"><path d="M 923.076923076923 645L 846.1538461538461 645M 923.076923076923 660L 923.076923076923 630" style="fill:none;stroke:#000000;stroke-linecap:round;stroke-miterlimit:10;" id="shape_24"/></g><g id="I55"><path d="M 923.076923076923 255L 692.3076923076922 255M 923.076923076923 270L 923.076923076923 240" style="fill:none;stroke:#000000;stroke-linecap:round;stroke-miterlimit:10;" id="shape_25"/></g><g id="I6"><path d="M 1004.9999999999999 330L 999.9999999999999 330" style="fill:none;stroke:#aaaaaa;stroke-width:0.3;stroke-linecap:round;stroke-miterlimit:10;stroke-dasharray:5,10;" id="shape_26"/><text id="text_8" transform="matrix(1.0000,0.0000,0.0000,1.0000,1005.0000,336.73)" fill="#000000" style="font-size:20px;font-family:Arial;">CAA06228.1 RNA-dependent RNA polymerase  Ophiostoma mitovirus 3a</text><path d="M 999.9999999999999 330L 923.076923076923 330" style="fill:none;stroke:#000000;stroke-linecap:round;stroke-miterlimit:10;" id="shape_27"/></g><g id="I16"><path d="M 846.1538461538461 82.5L 307.6923076923077 82.5M 846.1538461538461 105L 846.1538461538461 60" style="fill:none;stroke:#000000;stroke-linecap:round;stroke-miterlimit:10;" id="shape_28"/></g><g id="I49"><path d="M 1004.9999999999999 600L 999.9999999999999 600" style="fill:none;stroke:#aaaaaa;stroke-width:0.3;stroke-linecap:round;stroke-miterlimit:10;stroke-dasharray:5,10;" id="shape_29"/><text id="text_9" transform="matrix(1.0000,0.0000,0.0000,1.0000,1005.0000,606.73)" fill="#000000" style="font-size:20px;font-family:Arial;">CAB42654.1 RNA-dependent RNA polymerase putative  Ophiostoma mitovirus 6</text><path d="M 999.9999999999999 600L 769.230769230769 600" style="fill:none;stroke:#000000;stroke-linecap:round;stroke-miterlimit:10;" id="shape_30"/></g><g id="I0"><path d="M 923.076923076923 465L 846.1538461538461 465M 923.076923076923 480L 923.076923076923 450" style="fill:none;stroke:#000000;stroke-linecap:round;stroke-miterlimit:10;" id="shape_31"/></g><g id="I20"><path d="M 1004.9999999999999 120L 999.9999999999999 120" style="fill:none;stroke:#aaaaaa;stroke-width:0.3;stroke-linecap:round;stroke-miterlimit:10;stroke-dasharray:5,10;" id="shape_32"/><text id="text_10" transform="matrix(1.0000,0.0000,0.0000,1.0000,1005.0000,126.73)" fill="#000000" style="font-size:20px;font-family:Arial;">RirMV1</text><path d="M 999.9999999999999 120L 923.076923076923 120" style="fill:none;stroke:#000000;stroke-linecap:round;stroke-miterlimit:10;" id="shape_33"/></g><g id="I50"><path d="M 846.1538461538461 532.5L 538.4615384615385 532.5M 846.1538461538461 555L 846.1538461538461 510" style="fill:none;stroke:#000000;stroke-linecap:round;stroke-miterlimit:10;" id="shape_34"/></g><g id="I26"><path d="M 538.4615384615385 630.46875L 461.5384615384615 630.46875M 538.4615384615385 728.4375L 538.4615384615385 532.5" style="fill:none;stroke:#000000;stroke-linecap:round;stroke-miterlimit:10;" id="shape_35"/></g><g id="I33"><path d="M 1004.9999999999999 750L 999.9999999999999 750" style="fill:none;stroke:#aaaaaa;stroke-width:0.3;stroke-linecap:round;stroke-miterlimit:10;stroke-dasharray:5,10;" id="shape_36"/><text id="text_11" transform="matrix(1.0000,0.0000,0.0000,1.0000,1005.0000,756.73)" fill="#000000" style="font-size:20px;font-family:Arial;">AGW51760.1 RNA-dependent RNA polymerase-like protein  Mitovirus AEF-2013</text><path d="M 999.9999999999999 750L 846.1538461538461 750" style="fill:none;stroke:#000000;stroke-linecap:round;stroke-miterlimit:10;" id="shape_37"/></g><g id="I8"><path d="M 1004.9999999999999 300L 999.9999999999999 300" style="fill:none;stroke:#aaaaaa;stroke-width:0.3;stroke-linecap:round;stroke-miterlimit:10;stroke-dasharray:5,10;" id="shape_38"/><text id="text_12" transform="matrix(1.0000,0.0000,0.0000,1.0000,1005.0000,306.73)" fill="#000000" style="font-size:20px;font-family:Arial;">ALD89100.1 RNA-dependent RNA polymerase  Macrophomina phaseolina mitovirus 1</text><path d="M 999.9999999999999 300L 846.1538461538461 300" style="fill:none;stroke:#000000;stroke-linecap:round;stroke-miterlimit:10;" id="shape_39"/></g><g id="I32"><path d="M 1004.9999999999999 810L 999.9999999999999 810" style="fill:none;stroke:#aaaaaa;stroke-width:0.3;stroke-linecap:round;stroke-miterlimit:10;stroke-dasharray:5,10;" id="shape_40"/><text id="text_13" transform="matrix(1.0000,0.0000,0.0000,1.0000,1005.0000,816.73)" fill="#000000" style="font-size:20px;font-family:Arial;">AHF48622.1 RNA-dependent RNA polymerase  Sclerotinia sclerotiorum mitovirus 6</text><path d="M 999.9999999999999 810L 923.076923076923 810" style="fill:none;stroke:#000000;stroke-linecap:round;stroke-miterlimit:10;" id="shape_41"/></g><g id="I44"><path d="M 1004.9999999999999 630L 999.9999999999999 630" style="fill:none;stroke:#aaaaaa;stroke-width:0.3;stroke-linecap:round;stroke-miterlimit:10;stroke-dasharray:5,10;" id="shape_42"/><text id="text_14" transform="matrix(1.0000,0.0000,0.0000,1.0000,1005.0000,636.73)" fill="#000000" style="font-size:20px;font-family:Arial;">NP 660179.1 RNA-dependent RNA polymerase putative  Ophiostoma mitovirus 4</text><path d="M 999.9999999999999 630L 923.076923076923 630" style="fill:none;stroke:#000000;stroke-linecap:round;stroke-miterlimit:10;" id="shape_43"/></g><g id="I2"><path d="M 846.1538461538461 435L 769.230769230769 435M 846.1538461538461 465L 846.1538461538461 405" style="fill:none;stroke:#000000;stroke-linecap:round;stroke-miterlimit:10;" id="shape_44"/></g><g id="I39"><path d="M 1004.9999999999999 930L 999.9999999999999 930" style="fill:none;stroke:#aaaaaa;stroke-width:0.3;stroke-linecap:round;stroke-miterlimit:10;stroke-dasharray:5,10;" id="shape_45"/><text id="text_15" transform="matrix(1.0000,0.0000,0.0000,1.0000,1005.0000,936.73)" fill="#000000" style="font-size:20px;font-family:Arial;">AHF48631.1 RNA-dependent RNA polymerase  Sclerotinia sclerotiorum mitovirus 15</text><path d="M 999.9999999999999 930L 923.076923076923 930" style="fill:none;stroke:#000000;stroke-linecap:round;stroke-miterlimit:10;" id="shape_46"/></g><g id="I56"><path d="M 1004.9999999999999 240L 999.9999999999999 240" style="fill:none;stroke:#aaaaaa;stroke-width:0.3;stroke-linecap:round;stroke-miterlimit:10;stroke-dasharray:5,10;" id="shape_47"/><text id="text_16" transform="matrix(1.0000,0.0000,0.0000,1.0000,1005.0000,246.73)" fill="#000000" style="font-size:20px;font-family:Arial;">AIT71973.1 RNA-dependent RNA polymerase  Rhizoctonia cerealis mitovirus</text><path d="M 999.9999999999999 240L 923.076923076923 240" style="fill:none;stroke:#000000;stroke-linecap:round;stroke-miterlimit:10;" id="shape_48"/></g><g id="I42"><path d="M 846.1538461538461 675L 769.230769230769 675M 846.1538461538461 705L 846.1538461538461 645" style="fill:none;stroke:#000000;stroke-linecap:round;stroke-miterlimit:10;" id="shape_49"/></g><g id="I18"><path d="M 923.076923076923 105L 846.1538461538461 105M 923.076923076923 120L 923.076923076923 90" style="fill:none;stroke:#000000;stroke-linecap:round;stroke-miterlimit:10;" id="shape_50"/></g><g id="I35"><path d="M 1004.9999999999999 840L 999.9999999999999 840" style="fill:none;stroke:#aaaaaa;stroke-width:0.3;stroke-linecap:round;stroke-miterlimit:10;stroke-dasharray:5,10;" id="shape_51"/><text id="text_17" transform="matrix(1.0000,0.0000,0.0000,1.0000,1005.0000,846.73)" fill="#000000" style="font-size:20px;font-family:Arial;">ALD89134.1 RNA-dependent RNA polymerase  Sclerotinia sclerotiorum mitovirus 17</text><path d="M 999.9999999999999 840L 769.230769230769 840" style="fill:none;stroke:#000000;stroke-linecap:round;stroke-miterlimit:10;" id="shape_52"/></g><g id="I59"><path d="M 1004.9999999999999 390L 999.9999999999999 390" style="fill:none;stroke:#aaaaaa;stroke-width:0.3;stroke-linecap:round;stroke-miterlimit:10;stroke-dasharray:5,10;" id="shape_53"/><text id="text_18" transform="matrix(1.0000,0.0000,0.0000,1.0000,1005.0000,396.73)" fill="#000000" style="font-size:20px;font-family:Arial;">sp|Q33339.1|RDRP CPMV1 RecName Full RNA-directed RNA polymerase  AltName Full p93</text><path d="M 999.9999999999999 390L 923.076923076923 390" style="fill:none;stroke:#000000;stroke-linecap:round;stroke-miterlimit:10;" id="shape_54"/></g><g id="I28"><path d="M 692.3076923076922 819.375L 615.3846153846154 819.375M 692.3076923076922 866.25L 692.3076923076922 772.5" style="fill:none;stroke:#000000;stroke-linecap:round;stroke-miterlimit:10;" id="shape_55"/></g><g id="I10"><path d="M 461.5384615384615 473.671875L 384.6153846153845 473.671875M 461.5384615384615 630.46875L 461.5384615384615 316.875" style="fill:none;stroke:#000000;stroke-linecap:round;stroke-miterlimit:10;" id="shape_56"/></g><g id="I30"><path d="M 923.076923076923 795L 846.1538461538461 795M 923.076923076923 810L 923.076923076923 780" style="fill:none;stroke:#000000;stroke-linecap:round;stroke-miterlimit:10;" id="shape_57"/></g><g id="I7"><path d="M 1004.9999999999999 360L 999.9999999999999 360" style="fill:none;stroke:#aaaaaa;stroke-width:0.3;stroke-linecap:round;stroke-miterlimit:10;stroke-dasharray:5,10;" id="shape_58"/><text id="text_19" transform="matrix(1.0000,0.0000,0.0000,1.0000,1005.0000,366.73)" fill="#000000" style="font-size:20px;font-family:Arial;">AAO21337.1 RdRp-like protein  Sclerotinia homoeocarpa mitovirus</text><path d="M 999.9999999999999 360L 923.076923076923 360" style="fill:none;stroke:#000000;stroke-linecap:round;stroke-miterlimit:10;" id="shape_59"/></g><g id="I4"><path d="M 846.1538461538461 322.5L 769.230769230769 322.5M 846.1538461538461 345L 846.1538461538461 300" style="fill:none;stroke:#000000;stroke-linecap:round;stroke-miterlimit:10;" id="shape_60"/></g><g id="I54"><path d="M 1004.9999999999999 570L 999.9999999999999 570" style="fill:none;stroke:#aaaaaa;stroke-width:0.3;stroke-linecap:round;stroke-miterlimit:10;stroke-dasharray:5,10;" id="shape_61"/><text id="text_20" transform="matrix(1.0000,0.0000,0.0000,1.0000,1005.0000,576.73)" fill="#000000" style="font-size:20px;font-family:Arial;">BAN85985.1 putative RNA-dependent RNA polymerase  Rhizophagus sp. HR1 mitovirus-like ssRNA</text><path d="M 999.9999999999999 570L 923.076923076923 570" style="fill:none;stroke:#000000;stroke-linecap:round;stroke-miterlimit:10;" id="shape_62"/></g><g id="I41"><path d="M 769.230769230769 637.5L 615.3846153846154 637.5M 769.230769230769 675L 769.230769230769 600" style="fill:none;stroke:#000000;stroke-linecap:round;stroke-miterlimit:10;" id="shape_63"/></g><g id="I13"><path d="M 230.76923076923075 116.396484375L 153.84615384615384 116.396484375M 230.76923076923075 202.79296875L 230.76923076923075 30" style="fill:none;stroke:#000000;stroke-linecap:round;stroke-miterlimit:10;" id="shape_64"/></g><g id="I27"><path d="M 615.3846153846154 728.4375L 538.4615384615385 728.4375M 615.3846153846154 819.375L 615.3846153846154 637.5" style="fill:none;stroke:#000000;stroke-linecap:round;stroke-miterlimit:10;" id="shape_65"/></g><g id="I34"><path d="M 769.230769230769 866.25L 692.3076923076922 866.25M 769.230769230769 892.5L 769.230769230769 840" style="fill:none;stroke:#000000;stroke-linecap:round;stroke-miterlimit:10;" id="shape_66"/></g><g id="I24"><path d="M 1004.9999999999999 180L 999.9999999999999 180" style="fill:none;stroke:#aaaaaa;stroke-width:0.3;stroke-linecap:round;stroke-miterlimit:10;stroke-dasharray:5,10;" id="shape_67"/><text id="text_21" transform="matrix(1.0000,0.0000,0.0000,1.0000,1005.0000,186.73)" fill="#000000" style="font-size:20px;font-family:Arial;">AEG79311.1 RNA-dependent RNA polymerase  Tuber aestivum mitovirus</text><path d="M 999.9999999999999 180L 923.076923076923 180" style="fill:none;stroke:#000000;stroke-linecap:round;stroke-miterlimit:10;" id="shape_68"/></g><g id="I19"><path d="M 1004.9999999999999 90L 999.9999999999999 90" style="fill:none;stroke:#aaaaaa;stroke-width:0.3;stroke-linecap:round;stroke-miterlimit:10;stroke-dasharray:5,10;" id="shape_69"/><text id="text_22" transform="matrix(1.0000,0.0000,0.0000,1.0000,1005.0000,96.73)" fill="#000000" style="font-size:20px;font-family:Arial;">RdMV1</text><path d="M 999.9999999999999 90L 923.076923076923 90" style="fill:none;stroke:#000000;stroke-linecap:round;stroke-miterlimit:10;" id="shape_70"/></g><g id="I52"><path d="M 923.076923076923 555L 846.1538461538461 555M 923.076923076923 570L 923.076923076923 540" style="fill:none;stroke:#000000;stroke-linecap:round;stroke-miterlimit:10;" id="shape_71"/></g><g id="I45"><path d="M 1004.9999999999999 660L 999.9999999999999 660" style="fill:none;stroke:#aaaaaa;stroke-width:0.3;stroke-linecap:round;stroke-miterlimit:10;stroke-dasharray:5,10;" id="shape_72"/><text id="text_23" transform="matrix(1.0000,0.0000,0.0000,1.0000,1005.0000,666.73)" fill="#000000" style="font-size:20px;font-family:Arial;">BAQ36630.1 RNA-dependent RNA polymerase  Fusarium coeruleum mitovirus 1</text><path d="M 999.9999999999999 660L 923.076923076923 660" style="fill:none;stroke:#000000;stroke-linecap:round;stroke-miterlimit:10;" id="shape_73"/></g><g id="I60"><path d="M 1004.9999999999999 420L 999.9999999999999 420" style="fill:none;stroke:#aaaaaa;stroke-width:0.3;stroke-linecap:round;stroke-miterlimit:10;stroke-dasharray:5,10;" id="shape_74"/><text id="text_24" transform="matrix(1.0000,0.0000,0.0000,1.0000,1005.0000,426.73)" fill="#000000" style="font-size:20px;font-family:Arial;">AAA61703.1 putative RNA-dependent RNA polymerase  Cryphonectria parasitica mitovirus 1-NB631</text><path d="M 999.9999999999999 420L 923.076923076923 420" style="fill:none;stroke:#000000;stroke-linecap:round;stroke-miterlimit:10;" id="shape_75"/></g><g id="I15"><path d="M 1004.9999999999999 30L 999.9999999999999 30" style="fill:none;stroke:#aaaaaa;stroke-width:0.3;stroke-linecap:round;stroke-miterlimit:10;stroke-dasharray:5,10;" id="shape_76"/><text id="text_25" transform="matrix(1.0000,0.0000,0.0000,1.0000,1005.0000,36.73)" fill="#000000" style="font-size:20px;font-family:Arial;">RdMV2</text><path d="M 999.9999999999999 30L 230.76923076923075 30" style="fill:none;stroke:#000000;stroke-linecap:round;stroke-miterlimit:10;" id="shape_77"/></g><g id="I9"><path d="M 692.3076923076922 316.875L 461.5384615384615 316.875M 692.3076923076922 378.75L 692.3076923076922 255" style="fill:none;stroke:#000000;stroke-linecap:round;stroke-miterlimit:10;" id="shape_78"/></g><g id="I61"><path d="M 1004.9999999999999 480L 999.9999999999999 480" style="fill:none;stroke:#aaaaaa;stroke-width:0.3;stroke-linecap:round;stroke-miterlimit:10;stroke-dasharray:5,10;" id="shape_79"/><text id="text_26" transform="matrix(1.0000,0.0000,0.0000,1.0000,1005.0000,486.73)" fill="#000000" style="font-size:20px;font-family:Arial;">AHE13866.1 Pol partial  Sclerotinia sclerotiorum mitovirus 7</text><path d="M 999.9999999999999 480L 923.076923076923 480" style="fill:none;stroke:#000000;stroke-linecap:round;stroke-miterlimit:10;" id="shape_80"/></g><g id="I21"><path d="M 846.1538461538461 172.5L 384.6153846153845 172.5M 846.1538461538461 195L 846.1538461538461 150" style="fill:none;stroke:#000000;stroke-linecap:round;stroke-miterlimit:10;" id="shape_81"/></g><g id="I3"><path d="M 769.230769230769 378.75L 692.3076923076922 378.75M 769.230769230769 435L 769.230769230769 322.5" style="fill:none;stroke:#000000;stroke-linecap:round;stroke-miterlimit:10;" id="shape_82"/></g><g id="I14"><path d="M 1004.9999999999999 0L 999.9999999999999 0" style="fill:none;stroke:#aaaaaa;stroke-width:0.3;stroke-linecap:round;stroke-miterlimit:10;stroke-dasharray:5,10;" id="shape_83"/><text id="text_27" transform="matrix(1.0000,0.0000,0.0000,1.0000,1005.0000,6.73)" fill="#000000" style="font-size:20px;font-family:Arial;">NP 660178.1 RNA-dependent RNA polymerase  Saccharomyces 20S RNA narnavirus</text><path d="M 999.9999999999999 0L 153.84615384615384 0" style="fill:none;stroke:#000000;stroke-linecap:round;stroke-miterlimit:10;" id="shape_84"/></g><g id="I25"><path d="M 1004.9999999999999 210L 999.9999999999999 210" style="fill:none;stroke:#aaaaaa;stroke-width:0.3;stroke-linecap:round;stroke-miterlimit:10;stroke-dasharray:5,10;" id="shape_85"/><text id="text_28" transform="matrix(1.0000,0.0000,0.0000,1.0000,1005.0000,216.73)" fill="#000000" style="font-size:20px;font-family:Arial;">CAJ32467.1 RNA-dependent RNA polymerase  Ophiostoma mitovirus 1b</text><path d="M 999.9999999999999 210L 923.076923076923 210" style="fill:none;stroke:#000000;stroke-linecap:round;stroke-miterlimit:10;" id="shape_86"/></g><g id="I23"><path d="M 923.076923076923 195L 846.1538461538461 195M 923.076923076923 210L 923.076923076923 180" style="fill:none;stroke:#000000;stroke-linecap:round;stroke-miterlimit:10;" id="shape_87"/></g><g id="I38"><path d="M 1004.9999999999999 900L 999.9999999999999 900" style="fill:none;stroke:#aaaaaa;stroke-width:0.3;stroke-linecap:round;stroke-miterlimit:10;stroke-dasharray:5,10;" id="shape_88"/><text id="text_29" transform="matrix(1.0000,0.0000,0.0000,1.0000,1005.0000,906.73)" fill="#000000" style="font-size:20px;font-family:Arial;">AAR01972.1 RNA-dependent RNA polymerase  Cryphonectria cubensis mitovirus 1c</text><path d="M 999.9999999999999 900L 923.076923076923 900" style="fill:none;stroke:#000000;stroke-linecap:round;stroke-miterlimit:10;" id="shape_89"/></g><g id="I1"><path d="M 1004.9999999999999 450L 999.9999999999999 450" style="fill:none;stroke:#aaaaaa;stroke-width:0.3;stroke-linecap:round;stroke-miterlimit:10;stroke-dasharray:5,10;" id="shape_90"/><text id="text_30" transform="matrix(1.0000,0.0000,0.0000,1.0000,1005.0000,456.73)" fill="#000000" style="font-size:20px;font-family:Arial;">ALD89137.1 RNA-dependent RNA polymerase  Sclerotinia sclerotiorum mitovirus 20</text><path d="M 999.9999999999999 450L 923.076923076923 450" style="fill:none;stroke:#000000;stroke-linecap:round;stroke-miterlimit:10;" id="shape_91"/></g><g id="I48"><path d="M 1004.9999999999999 720L 999.9999999999999 720" style="fill:none;stroke:#aaaaaa;stroke-width:0.3;stroke-linecap:round;stroke-miterlimit:10;stroke-dasharray:5,10;" id="shape_92"/><text id="text_31" transform="matrix(1.0000,0.0000,0.0000,1.0000,1005.0000,726.73)" fill="#000000" style="font-size:20px;font-family:Arial;">CAB42653.1 RNA-dependent RNA polymerase putative  Ophiostoma mitovirus 5</text><path d="M 999.9999999999999 720L 923.076923076923 720" style="fill:none;stroke:#000000;stroke-linecap:round;stroke-miterlimit:10;" id="shape_93"/></g><g id="NR0"><path d="M 153.84615384615384 58.1982421875L 76.92307692307692 58.1982421875M 153.84615384615384 116.396484375L 153.84615384615384 0" style="fill:none;stroke:#000000;stroke-linecap:round;stroke-miterlimit:10;" id="shape_94"/></g></g><g id="container_5"/><g id="container_6"/><g id="container_7"><text id="text_32" transform="matrix(1.0000,0.0000,0.0000,1.0000,346.1538,330.09)" fill="#000000" text-anchor="middle" style="font-size:10px;font-family:Arial;">28</text><text id="text_33" transform="matrix(1.0000,0.0000,0.0000,1.0000,769.2308,779.51)" fill="#000000" text-anchor="middle" style="font-size:10px;font-family:Arial;">73</text><text id="text_34" transform="matrix(1.0000,0.0000,0.0000,1.0000,884.6154,922.01)" fill="#000000" text-anchor="middle" style="font-size:10px;font-family:Arial;">87</text><text id="text_35" transform="matrix(1.0000,0.0000,0.0000,1.0000,269.2308,209.80)" fill="#000000" text-anchor="middle" style="font-size:10px;font-family:Arial;">24</text><text id="text_36" transform="matrix(1.0000,0.0000,0.0000,1.0000,807.6923,899.51)" fill="#000000" text-anchor="middle" style="font-size:10px;font-family:Arial;">65</text><text id="text_37" transform="matrix(1.0000,0.0000,0.0000,1.0000,884.6154,412.01)" fill="#000000" text-anchor="middle" style="font-size:10px;font-family:Arial;">100</text><text id="text_38" transform="matrix(1.0000,0.0000,0.0000,1.0000,884.6154,352.01)" fill="#000000" text-anchor="middle" style="font-size:10px;font-family:Arial;">100</text><text id="text_39" transform="matrix(1.0000,0.0000,0.0000,1.0000,884.6154,712.01)" fill="#000000" text-anchor="middle" style="font-size:10px;font-family:Arial;">97</text><text id="text_40" transform="matrix(1.0000,0.0000,0.0000,1.0000,884.6154,652.01)" fill="#000000" text-anchor="middle" style="font-size:10px;font-family:Arial;">97</text><text id="text_41" transform="matrix(1.0000,0.0000,0.0000,1.0000,807.6923,262.01)" fill="#000000" text-anchor="middle" style="font-size:10px;font-family:Arial;">100</text><text id="text_42" transform="matrix(1.0000,0.0000,0.0000,1.0000,576.9231,89.51)" fill="#000000" text-anchor="middle" style="font-size:10px;font-family:Arial;">91</text><text id="text_43" transform="matrix(1.0000,0.0000,0.0000,1.0000,884.6154,472.01)" fill="#000000" text-anchor="middle" style="font-size:10px;font-family:Arial;">100</text><text id="text_44" transform="matrix(1.0000,0.0000,0.0000,1.0000,692.3077,539.51)" fill="#000000" text-anchor="middle" style="font-size:10px;font-family:Arial;">94</text><text id="text_45" transform="matrix(1.0000,0.0000,0.0000,1.0000,500.0000,637.48)" fill="#000000" text-anchor="middle" style="font-size:10px;font-family:Arial;">26</text><text id="text_46" transform="matrix(1.0000,0.0000,0.0000,1.0000,807.6923,442.01)" fill="#000000" text-anchor="middle" style="font-size:10px;font-family:Arial;">98</text><text id="text_47" transform="matrix(1.0000,0.0000,0.0000,1.0000,807.6923,682.01)" fill="#000000" text-anchor="middle" style="font-size:10px;font-family:Arial;">98</text><text id="text_48" transform="matrix(1.0000,0.0000,0.0000,1.0000,884.6154,112.01)" fill="#000000" text-anchor="middle" style="font-size:10px;font-family:Arial;">100</text><text id="text_49" transform="matrix(1.0000,0.0000,0.0000,1.0000,653.8462,826.38)" fill="#000000" text-anchor="middle" style="font-size:10px;font-family:Arial;">79</text><text id="text_50" transform="matrix(1.0000,0.0000,0.0000,1.0000,423.0769,480.68)" fill="#000000" text-anchor="middle" style="font-size:10px;font-family:Arial;">30</text><text id="text_51" transform="matrix(1.0000,0.0000,0.0000,1.0000,884.6154,802.01)" fill="#000000" text-anchor="middle" style="font-size:10px;font-family:Arial;">100</text><text id="text_52" transform="matrix(1.0000,0.0000,0.0000,1.0000,807.6923,329.51)" fill="#000000" text-anchor="middle" style="font-size:10px;font-family:Arial;">100</text><text id="text_53" transform="matrix(1.0000,0.0000,0.0000,1.0000,692.3077,644.51)" fill="#000000" text-anchor="middle" style="font-size:10px;font-family:Arial;">91</text><text id="text_54" transform="matrix(1.0000,0.0000,0.0000,1.0000,576.9231,735.45)" fill="#000000" text-anchor="middle" style="font-size:10px;font-family:Arial;">78</text><text id="text_55" transform="matrix(1.0000,0.0000,0.0000,1.0000,730.7692,873.26)" fill="#000000" text-anchor="middle" style="font-size:10px;font-family:Arial;">85</text><text id="text_56" transform="matrix(1.0000,0.0000,0.0000,1.0000,884.6154,562.01)" fill="#000000" text-anchor="middle" style="font-size:10px;font-family:Arial;">88</text><text id="text_57" transform="matrix(1.0000,0.0000,0.0000,1.0000,576.9231,323.88)" fill="#000000" text-anchor="middle" style="font-size:10px;font-family:Arial;">86</text><text id="text_58" transform="matrix(1.0000,0.0000,0.0000,1.0000,615.3846,179.51)" fill="#000000" text-anchor="middle" style="font-size:10px;font-family:Arial;">96</text><text id="text_59" transform="matrix(1.0000,0.0000,0.0000,1.0000,730.7692,385.76)" fill="#000000" text-anchor="middle" style="font-size:10px;font-family:Arial;">82</text><text id="text_60" transform="matrix(1.0000,0.0000,0.0000,1.0000,884.6154,202.01)" fill="#000000" text-anchor="middle" style="font-size:10px;font-family:Arial;">96</text></g><g id="container_8"/><g id="container_9"/></g><g id="container_10" transform="matrix(1.0000,0.0000,0.0000,1.0000,100.0000,100.00)"/></g></svg>